<?xml version="1.0" encoding="iso-8859-1"?>
<!-- Generator: Adobe Illustrator 16.0.0, SVG Export Plug-In . SVG Version: 6.00 Build 0)  -->
<!DOCTYPE svg PUBLIC "-//W3C//DTD SVG 1.1//EN" "http://www.w3.org/Graphics/SVG/1.1/DTD/svg11.dtd">
<svg version="1.1" id="Capa_1" xmlns="http://www.w3.org/2000/svg" xmlns:xlink="http://www.w3.org/1999/xlink" x="0px" y="0px"
	 width="583.05px" height="583.05px" viewBox="0 0 583.05 583.05" style="enable-background:new 0 0 583.05 583.05;"
	 xml:space="preserve">
<g>
	<g id="Layer_1_37_">
		<g>
			<path d="M217.575,231.15c30.6-49.725,73.95-87.975,122.399-108.375C297.9,42.45,221.4-4.725,148.725,0.375
				c33.15,36.975,61.2,100.725,66.3,206.55C216.3,215.85,217.575,223.5,217.575,231.15z"/>
			<path d="M152.55,210.75C147.45,93.45,110.475,45,81.15,24.6c-71.4,47.175-98.175,155.55-61.2,257.55
				c29.325,79.05,89.25,133.874,153,151.725c-3.825-30.601-3.825-62.476,2.55-94.351C164.025,302.55,155.1,260.475,152.55,210.75z"
				/>
			<path d="M501.9,168.675c-29.325,20.4-66.301,68.85-71.4,184.875c-5.1,105.825-36.975,178.5-77.775,228.225
				c5.101,0,10.2,1.275,15.301,1.275c79.05,0,159.375-62.475,195.074-156.825C600.075,322.95,573.3,215.85,501.9,168.675z"/>
			<path d="M433.05,145.725c-3.825,0-7.649,0-12.75,0c-79.05,0-159.375,61.2-195.075,156.825
				c-38.25,103.275-10.2,210.375,61.2,257.55c39.525-40.8,75.226-104.55,79.05-207.825C371.85,245.175,399.9,182.7,433.05,145.725z"
				/>
		</g>
	</g>
</g>
<g>
</g>
<g>
</g>
<g>
</g>
<g>
</g>
<g>
</g>
<g>
</g>
<g>
</g>
<g>
</g>
<g>
</g>
<g>
</g>
<g>
</g>
<g>
</g>
<g>
</g>
<g>
</g>
<g>
</g>
</svg>
