<svg id="Capa_1" enable-background="new 0 0 468 468" height="512" viewBox="0 0 468 468" width="512" xmlns="http://www.w3.org/2000/svg"><path d="m343.794 123.07h37.542v39.359h-37.542z"/><path d="m262.6 307.411h-76.02l-1.244 26.406c.035 12.599 2.953 25.022 8.532 36.319l.1.218 12.55 28.146h38.728l11.9-30.292c5.091-12.156 7.373-25.304 6.676-38.464z"/><path d="m293.59 339.315c0-10.5-7.83-19.356-18.426-21.939l.639 11.716c.538 10.128-.477 20.279-3.007 30.1 10.976-2.692 20.794-10.32 20.794-19.877z"/><path d="m77.211 71.778c8.558-.183 15.348-7.269 15.165-15.827s-7.269-15.348-15.827-15.165c-8.428.18-15.167 7.063-15.169 15.493.102 8.646 7.184 15.58 15.831 15.499z"/><path d="m141.699 123.07h162.744v22.589h-162.744z"/><path d="m407.269 398.784v-275.714h-13.933v43.207c0 4.572-4.2 8.153-9.553 8.153h-15.218v26.087c0 3.314-2.686 6-6 6s-6-2.686-6-6v-26.087h-15.217c-5.357 0-9.554-3.581-9.554-8.153v-43.207h-15.351v26.973c-.109 4.305-3.68 7.71-7.985 7.616h-38.637v32.7h22.929c4.298.099 7.706 3.657 7.619 7.955v37.915c.087 4.298-3.321 7.856-7.619 7.955h-139.357c-4.298-.098-7.707-3.656-7.62-7.955v-12.958h-42.6c-3.314 0-6-2.686-6-6s2.686-6 6-6h42.6v-12.957c-.087-4.299 3.322-7.857 7.62-7.955h22.928v-32.7h-38.637c-4.305.094-7.876-3.311-7.985-7.616v-26.973h-68.969v275.714c2.34-.18 4.743-.282 7.223-.282h125.427l-10.319-23.154c-6.381-12.966-9.707-27.222-9.723-41.674l.007-.28 1.442-30.628c-.219-3.837 2.715-7.125 6.552-7.344.135-.008.269-.011.404-.011h85.657c3.842-.005 6.96 3.105 6.965 6.947 0 .084-.001.169-.004.253l.133 2.419c17.594 2.592 31.1 16.979 31.1 34.285 0 9.348-4.923 17.982-13.864 24.311-6.873 4.766-14.863 7.669-23.192 8.426-.1.246-.195.494-.3.739l-10.1 25.711h141.908c2.481-.002 4.883.098 7.223.282z"/><path d="m157.773 202.359h130.596v29.825h-130.596z"/><path d="m443 443.025c0-9.779-4.186-32.523-42.954-32.523h-150.686-.027-.02-181.36c-38.767-.002-42.953 22.744-42.953 32.523v24.975h418z"/><path d="m188.321 157.659h69.5v32.7h-69.5z"/><path d="m159.24 29.35h133.674v53.858h-133.674z"/><path d="m371.893 58.491c1.222.033 2.239-.931 2.271-2.153s-.931-2.239-2.153-2.271c-1.222-.033-2.239.931-2.271 2.153-.001.02-.001.039-.001.059-.014 1.205.949 2.194 2.154 2.212z"/><path d="m39 111.07h390c7.729-.008 13.992-6.271 14-14v-83.07c-.008-7.729-6.271-13.992-14-14h-390c-7.729.008-13.992 6.271-14 14v83.07c.008 7.729 6.271 13.992 14 14zm369.774-64.579c5.406.032 9.762 4.44 9.73 9.846s-4.44 9.762-9.846 9.73c-5.383-.032-9.73-4.405-9.73-9.788.022-5.419 4.427-9.798 9.846-9.788zm-36.881 0c5.406.032 9.762 4.44 9.73 9.846s-4.44 9.762-9.846 9.73c-5.383-.032-9.73-4.405-9.73-9.788.022-5.419 4.427-9.798 9.846-9.788zm-37.63 0c5.406.032 9.762 4.44 9.73 9.846s-4.44 9.762-9.846 9.73c-5.383-.032-9.73-4.405-9.73-9.788.022-5.419 4.427-9.798 9.846-9.788zm-187.023-21.141c.005-4.416 3.584-7.995 8-8h141.674c4.416.005 7.995 3.584 8 8v61.858c-.005 4.416-3.584 7.995-8 8h-141.674c-4.416-.005-7.995-3.584-8-8zm-70.029 3.429c15.187.183 27.35 12.642 27.167 27.829s-12.642 27.35-27.829 27.167c-15.057-.181-27.168-12.438-27.169-27.496.11-15.271 12.559-27.573 27.831-27.5z"/><path d="m334.263 58.491c1.222.033 2.239-.931 2.271-2.153s-.931-2.239-2.153-2.271c-1.222-.033-2.239.931-2.271 2.153-.001.02-.001.039-.001.059-.014 1.205.949 2.194 2.154 2.212z"/><path d="m408.774 58.491c1.222.033 2.239-.931 2.271-2.153s-.931-2.239-2.153-2.271c-1.222-.033-2.239.931-2.271 2.153-.001.02-.001.039-.001.059-.014 1.205.949 2.194 2.154 2.212z"/></svg>