<svg width="774.25848" height="264.93973" xmlns="http://www.w3.org/2000/svg">

 <g>
  <title>background</title>
  <rect fill="none" id="canvas_background" height="402" width="582" y="-1" x="-1"/>
 </g>
 <g>
  <title>Layer 1</title>
  <path fill="#d6552c" id="CU-16" d="m233.86335,8.7083l0,0l-0.1,0.63l-0.72,0.95l0.91,4.08l0.13,0.99l0.02,0.54l-0.11,0.03l-0.19,-0.07l-0.69,-0.41l-0.37,0.01l-0.37,0.21l-0.5,0.71l-0.14,0.39l0.04,0.29l0.61,0.5l0.32,0.42l0.02,0.22l-0.18,0.23l-0.28,0.12l-0.66,0.93l-1.45,1l-0.4,0.35l-0.04,0.06l-0.08,0.16l-0.12,0.28l-0.18,0.6l0.12,0.25l0.25,0.14l0.79,0.1l0.52,0.2l0.52,0.41l0.56,0.52l1.17,1.52l0.83,1.23l0.06,0.24l0.05,0.53l-0.07,0.32l-0.18,2.22l-0.92,2.9l1.17,2.1l1.1,1.04l0.92,0.66l0.3,0.43l0,0.48l-0.78,1.96l-0.03,1.19l0.42,0.73l2.7,1.67l1.17,1.04l0.13,1.16l-0.55,3.92l-0.14,0.54l-0.23,0.57l-0.41,0.68l-0.61,0.8l-0.92,1.49l-0.24,0.23l-0.31,0.23l-0.24,0.11l-0.06,0.05l-0.08,0.13l-0.11,0.16l-0.5,-0.17l-1.07,-0.03l-1.96,-1.7l-1.34,-1.09l-2.47,-1.89l-2.51,-0.93l-6.37,-2.3l-2.5,0.09l-5.73,0.53l-7.6,1.3l-2.3,-1l-4.86,-1.39l-5.43,0.01l-3.03,0.36l-1.56,0.18l-1.49,-0.17l-2.27,-0.59l0.26,-1.64l-0.24,-0.98l-0.94,-0.59l-0.9,-0.53l-1.46,-2.06l-1.46,-3.01l0,-2.86l0.58,-2.53l0.88,-1.91l0,-2.06l0.1,-2.69l1.16,-0.47l0.55,-0.17l0.5,0.33l0.77,0.95l0.4,0.09l0.49,-0.21l0.94,-0.84l0.28,-0.55l0.64,-0.64l2.81,0.26l1.84,-0.12l0.75,0.34l0.71,0.09l0.85,0l0.63,-0.25l0.43,-0.6l0.54,-1l2.44,-2.72l0.06,-0.28l-0.1,-0.37l-0.6,-1.25l-0.11,-0.68l0.03,-0.5l0.17,-0.65l0.05,-0.39l-0.01,-0.38l-0.11,-0.3l-0.05,-0.22l0.08,-0.11l0.41,-0.03l0.4,0.43l0.51,0.73l0.24,0.04l0.41,-0.28l0.47,-0.44l0.36,-0.97l0.08,-0.42l0.12,-0.25l0.25,-0.24l0.3,-0.1l0.63,0.32l0.42,0.3l2.51,2.97l0.69,-1.27l0.09,-1.32l0.09,-0.35l0.17,-0.22l0.39,-0.33l0.07,-0.33l-0.2,-0.7l-0.03,-0.44l0.17,-0.27l0.68,-0.04l0.37,-0.31l-1.21,-1.52l-0.4,-0.69l0.13,-0.78l-0.23,-0.76l0,0l0.84,-0.22l1.67,-0.17l0.72,-0.17l0.78,-0.3l0.77,-0.14l0.7,0.35l2.69,1.91l2.12,0.61l4.59,0.45l2.12,0.53l1.6,-0.53l11.17,0.07z"/>
  <path fill="#d6552c" id="CU-05" d="m385.07335,36.1183l0,0l3.72,4.23l1.55,1.28l3.29,1.02l2.68,2.22l2.92,1.14l1.44,1.5l1.17,1.75l0.62,1.41l-1.62,-1.46l-0.57,-0.18l-0.63,-0.13l-0.66,-0.3l-0.96,-0.63l-1.06,-0.95l-2.4,-2.7l-1.29,0.47l-1.32,-0.15l-1.22,-0.6l-1.63,-1.27l-0.46,-0.18l-0.28,-0.33l-0.11,-0.89l-0.24,-0.3l-1.14,-0.86l-0.35,-0.18l-0.59,-0.5l-0.37,-1.09l-0.62,-1.09l-1.35,-0.5l-2.12,0.9l-0.95,-0.06l-0.12,-1.42l2.03,-0.62l1.46,-0.08l1.18,0.55zm-7.88,-4.29l0,0l0.99,0.57l0.39,0.54l-0.64,0.69l-1.11,0.2l-0.5,-0.51l0,-0.54l-0.21,-0.26l-0.28,-0.15l-0.39,0.05l-0.5,-0.13l-1.38,-0.98l-0.64,-0.75l0.08,-0.78l0.9,-0.25l-0.15,-0.49l0.05,-0.67l0.38,-0.25l0.48,0.86l-0.2,1.25l0.5,0.17l1.38,0.3l0.44,0.67l0.41,0.46zm-16.51,-8.31l0,0l1.11,0.56l0.59,-0.04l-0.05,1.04l-0.76,0.75l-1.53,-0.98l-0.68,0.22l-0.74,1.06l-0.71,0.34l-0.55,-1.91l1.03,-0.63l1.12,-0.4l1.17,-0.01zm5.44,4.24l0,0l-0.83,0.11l-0.82,-0.51l-0.47,-0.7l0.22,-0.46l0.44,-0.37l0.17,-0.39l-0.64,-0.1l-0.66,-0.37l0.72,-1.15l1.61,-0.43l0.88,0.27l0.56,0.8l0.1,0.55l-0.44,0.37l-0.85,0.27l-0.51,0.56l0.32,0.44l0.62,0.11l0.12,0.43l-0.54,0.57zm-29.81,-5.8l0,0l0.65,0.3l0.46,0.46l0.26,0.6l0.05,0.76l-7.21,-1.25l-1.09,-0.87l0.44,-0.35l0.42,-0.18l0.49,0.08l0.6,0.45l3.48,-1.73l1.59,-0.17l1.28,0.84l-0.37,0.22l-0.7,0.61l-0.35,0.23zm-14.55,1.12l0,0l0.74,0.91l0.94,0.81l1.3,0.34l4.04,-0.01l0.89,0.28l1.08,0.95l1.15,0.66l1.19,0.44l1.22,0.28l2.35,0.08l2.22,-0.47l4.27,-1.68l-0.54,-1.85l1.2,-0.04l3.8,1.9l1.69,0.53l1.43,-0.27l0.27,-1.86l0.77,0.42l0.78,0.55l0.61,0.67l0.24,0.75l1.62,2.94l0.16,0.5l2.71,1.59l0.39,0.07l1.27,-0.07l0.49,0.18l0.21,0.38l0.04,0.38l-0.01,0.17l1.49,-0.45l2.33,-2.22l4.39,-1.24l0.63,0.15l0,0.59l-0.67,0.62l-1.33,0.91l-1.64,-0.79l-0.8,0.63l-0.93,2.82l0.78,1.2l0.45,0.52l0.68,0.44l0.76,0.21l2.94,0.27l1.27,0.43l4.2,3.01l0.23,0.37l0.27,0.34l0.43,0.14l0.39,-0.18l0.43,-0.38l0.32,-0.38l0.08,-0.17l1.63,-0.21l0.61,0.4l1.77,7.85l0.04,0.05l1.07,0.35l0.87,0.45l0.77,0.62l0.81,0.89l0.82,1.23l0.98,2.4l0.66,1.13l1.82,2.05l0.4,0.35l1.07,0.21l2.06,0.04l0.83,0.23l1.9,2.96l0.37,0.89l0.57,0.48l-0.04,0.08l0.03,1.78l-1.32,2.48l0.83,0.65l0.6,0.97l2.4,4.82l2.03,2.81l0.05,0.57l-0.28,0.96l-0.18,0.93l0.08,1.23l-0.22,1.39l-1.84,-0.3l-1.78,-0.94l-0.7,-0.16l-0.88,0.06l-1.26,0.47l-0.85,0.45l-1.28,1.32l-0.39,1.39l-0.37,0.97l-0.53,1.08l-0.61,0.82l-0.64,0.59l-0.8,0.34l-1.01,0.13l-1.01,-0.42l-0.62,-0.42l-0.97,-0.44l-1.46,0.47l-2.93,-0.89l-0.66,-0.05l-0.95,0.1l-1.02,0.7l-0.52,0.28l-0.62,0.04l-0.74,-0.19l-0.75,-0.66l-0.36,-0.53l-0.26,-0.5l-0.83,-0.69l-2.37,-0.06l-0.78,0.7l-0.15,0.53l0.03,0.8l0.46,1.33l1.04,2.05l0.32,0.87l0.26,0.5l0.22,0.23l0.31,0.07l0.36,-0.04l0.42,0.02l0.32,0.16l0.27,0.42l-0.06,1.01l-0.38,1.42l-1.18,2.38l-1.41,2.32l-1.77,1.52l-2.13,-0.16l-1.02,-0.54l-0.35,-0.27l-0.52,-0.22l-4.15,-1l-0.68,0.09l-0.73,0.31l-0.71,0.91l-0.27,0.61l-0.15,0.65l-0.2,0.4l-0.36,0.23l-1.06,-0.09l-0.49,0.14l-1.33,1.09l-2.54,1.19l0.06,-1.05l-0.11,-0.16l-1.45,-1.11l-0.24,-0.67l-0.11,-0.73l0.05,-1.16l-0.12,-2.05l-0.18,-0.63l-0.38,-0.53l-1.34,-1.12l-0.48,-0.95l-0.37,-1.05l-0.75,-3.06l-0.05,-0.65l0.05,-1.52l-0.27,-2.99l0.08,-0.7l0.28,-0.64l0.26,-0.45l0.78,-2.49l-1.8,-0.83l-0.88,-1.16l-0.62,-1.15l-0.4,-0.88l-0.19,-0.7l-0.23,-1.73l-0.12,-0.28l-0.17,-0.14l-0.3,-0.07l-0.37,0.04l-1.07,0.33l-0.51,0.04l-0.51,-0.1l-0.88,-0.46l-2.6,-2.55l-0.44,-0.61l-0.25,-0.5l-0.03,-0.83l1.36,-1.49l0.23,-1.02l-0.2,-0.33l-0.27,-0.3l-0.51,-0.27l-0.29,-0.56l-0.04,-0.44l0.12,-0.56l0.28,-0.67l-0.22,-0.79l-1.36,-0.77l-0.25,-0.4l-0.8,-1.87l-0.08,-0.68l0.02,-0.4l0.22,-0.19l0.23,-0.11l0.28,-0.08l0.21,-0.11l0.17,-0.38l0.11,-0.65l0,-1.37l-0.1,-0.51l-0.15,-0.23l-0.19,0.15l-0.33,0.38l-0.21,0.14l-0.43,0.08l-0.46,0l-1,-0.09l-0.42,0.01l-0.25,0.1l-0.24,0.29l-0.26,0.51l-0.54,1.72l-0.14,0.21l-0.23,0.13l-0.39,0.02l-0.55,-0.02l-0.39,0.03l-0.33,0.13l-0.8,0.53l-0.46,0.23l-0.81,0.28l-0.39,0.01l-0.32,-0.1l-0.11,-0.18l-0.05,-0.21l0.06,-0.34l0.35,-1.03l0.14,-0.73l0.04,-1.12l-0.34,-0.42l-0.6,-0.12l-1.77,0.35l-1.71,-1.42l-0.37,-0.13l-0.6,-0.05l-0.34,0.19l-0.27,0.25l-0.2,0.3l-0.87,1.01l-2.97,1.74l-1.04,-1.79l-0.44,-0.49l-0.32,-0.77l-0.2,-0.78l-0.17,-1.53l-0.35,-0.6l-0.32,-0.37l-0.17,-0.32l-0.07,-0.57l0.37,-3.64l-0.03,-0.67l-0.12,-0.51l-0.33,-0.53l-0.52,-0.55l-0.12,-0.34l0.09,-0.44l0.4,-0.59l0.67,-0.29l0.37,-0.22l0.1,-0.4l-0.19,-0.58l-1.08,-1.86l-0.51,-1.6l-0.31,-0.68l-0.08,-0.26l-0.3,-0.68l-0.2,-0.3l-0.53,-0.23l-0.69,0.01l-1.4,0.54l-1.41,1.04l-0.53,0.23l-1.15,0.08l-1.44,-1.26l-1.2,-0.79l-0.29,-0.27l-0.21,-0.3l-0.21,-0.43l-0.45,-0.65l-0.74,-0.81l-0.24,-0.37l-0.14,-0.36l-0.08,-0.51l-0.14,-0.25l-0.26,-0.19l-0.27,-0.15l-0.12,-0.22l0.09,-0.29l0.51,-0.29l0.36,-0.37l0.39,-0.56l0.18,-1.13l-0.08,-0.63l-0.29,-1.18l-0.04,-0.87l0.05,-0.61l0.2,-0.74l0.24,-0.33l0.38,-0.2l1.78,0.05l0.3,-0.04l1.01,-0.38l0.34,-0.09l0.39,-0.02l0.27,0.05l0.29,0.14l0.62,0.43l0.33,0.07l0.42,-0.04l0.72,-0.23l0.52,-0.42l0.35,-0.61l0.04,-1.3l-0.05,-0.8l0.21,-1.78l1.14,-2.21l0.44,-0.19l0.01,0l2.59,4.72l1.47,1.04l1.14,0.08l2.9,0.56l1.09,0.42l0.68,0.64zm27.93,-6.68l0,0l0.23,0.64l0.27,0.57l0.29,1.03l-0.2,0.2l-0.4,-0.59l-0.33,-0.36l-0.3,0.02l-0.47,0.1l-0.58,-0.08l-0.41,-0.35l-0.26,-0.43l0.02,-0.18l0.25,0.05l0.11,-0.42l0.13,-0.93l0.78,-0.19l0.87,0.92zm-5.57,-1.39l0,0l-1.43,0.67l-1.45,-0.29l-3.02,-1.44l0.16,-0.8l0.38,-0.57l0.47,-0.57l0.45,-0.76l0.54,0l0.45,1l0.78,0.87l0.95,0.6l0.99,0.23l1.15,0.04l0.38,0.16l-0.2,0.32l-0.6,0.54zm-7.31,-0.73l0,0l-0.41,0.03l-0.48,-0.34l-0.34,-0.54l-0.29,-0.59l-0.56,-0.19l-1.06,-0.61l-0.32,-0.14l-0.12,-0.35l-0.13,-0.17l-0.46,-0.3l-0.2,-0.63l0.7,-0.46l0.53,-0.1l0.53,-0.05l0.62,0.18l-0.01,0.44l0.51,0.54l1.04,0.95l0.45,0.6l0.18,0.25l0.28,0.52l-0.09,0.52l-0.37,0.44zm-9.54,-4.85l0,0l-0.58,0.14l-0.56,-0.05l-1.84,0.24l-0.69,0.56l-1.08,0.47l-0.98,0.26l-0.12,-0.14l-0.17,-0.51l0.27,-0.16l0.64,0.08l-0.12,-0.69l0.36,-0.43l1.02,-0.15l0.53,-0.02l1.64,-0.14l0.82,0.01l0.98,0.18l-0.12,0.35z"/>
  <path fill="#d6552c" id="CU-04" d="m243.48335,93.8283l0,0l0.17,1.07l-0.57,0.04l-0.75,-0.45l-0.74,0.06l-0.43,-0.12l-0.32,-0.48l-0.18,-0.58l0,-0.64l0.45,-0.3l0.79,0.19l0.74,0.38l0.35,0.24l0.49,0.59zm50.48,-86.78l0,0l1.1,1.01l0,-1.06l0.54,0l0.69,1.13l0.45,0.53l0,0.36l-0.66,0.63l-1.19,0.71l-0.85,-0.08l-0.76,-0.39l-0.88,-0.24l-2.31,0.24l-1.75,0.61l-3.54,1.81l0.81,-0.9l4.33,-2.88l1.28,-0.28l1.39,0.05l1.52,0.34l-0.28,-0.42l-0.4,-0.81l-0.3,-0.41l0.49,-0.49l0.32,0.54zm22.72,-1.12l0,0l0.62,0.06l1.83,-0.06l0.38,-0.09l0.51,-0.2l0.43,0.03l0.18,0.55l-0.16,0.57l-0.42,0.32l-0.56,0.28l-0.6,0.43l-0.72,-0.11l-1.27,-0.54l-1.44,-0.43l-1.22,0.26l-0.28,-0.46l-0.31,-0.03l-0.87,0.49l0.26,-1.07l0.47,-0.64l0.76,-0.33l1.17,-0.09l0.29,0.15l0.57,0.69l0.38,0.22zm-9.84,-0.68l0,0l-0.18,0.54l-0.31,-0.03l-0.23,0.06l-0.07,0.56l-0.37,0.1l-0.82,-0.17l-0.54,0.3l-0.14,0.52l-0.25,-0.24l-0.05,-0.99l0.72,-0.85l1.24,-0.49l0.65,-0.16l0.19,0.24l0.16,0.61zm-37.29,11.61l0,0l2.56,1.34l1.42,0.03l0.61,-0.35l0.51,-0.8l1.08,-1.3l0.34,-0.64l0.76,-1.9l0.36,-0.4l0.81,-0.09l1.47,-0.38l0.45,-0.06l2.98,0.53l0.49,-0.02l0.28,-0.14l0.13,0.28l0.03,1.23l0.54,1.71l1.31,0.42l1.62,-0.3l1.46,-0.48l11.23,-2.17l1.76,-0.05l3.34,0.7l1.78,-0.07l1.5,-0.64l1.34,-1.18l0.39,-1.46l-1.32,-1.5l0.93,-0.45l0.98,-0.11l0.9,0.16l0.7,0.4l0,0.48l-0.61,0.57l-1.88,3.73l1.99,1.51l0.09,0.16l-0.44,0.19l-1.14,2.21l-0.21,1.78l0.05,0.8l-0.04,1.3l-0.35,0.61l-0.52,0.42l-0.72,0.23l-0.42,0.04l-0.33,-0.07l-0.62,-0.43l-0.29,-0.14l-0.27,-0.05l-0.39,0.02l-0.34,0.09l-1.01,0.38l-0.3,0.04l-1.78,-0.05l-0.38,0.2l-0.24,0.33l-0.2,0.74l-0.05,0.61l0.04,0.87l0.29,1.18l0.08,0.63l-0.18,1.13l-0.39,0.56l-0.36,0.37l-0.51,0.29l-0.09,0.29l0.12,0.22l0.27,0.15l0.26,0.19l0.14,0.25l0.08,0.51l0.14,0.36l0.24,0.37l0.74,0.81l0.45,0.65l0.21,0.43l0.21,0.3l0.29,0.27l1.2,0.79l1.44,1.26l1.15,-0.08l0.53,-0.23l1.41,-1.04l1.4,-0.54l0.69,-0.01l0.53,0.23l0.2,0.3l0.3,0.68l0.08,0.26l0.31,0.68l0.51,1.6l1.08,1.86l0.19,0.58l-0.1,0.4l-0.37,0.22l-0.67,0.29l-0.4,0.59l-0.09,0.44l0.12,0.34l0.52,0.55l0.33,0.53l0.12,0.51l0.03,0.67l-0.37,3.64l0.07,0.57l0.17,0.32l0.32,0.37l0.35,0.6l0.17,1.53l0.2,0.78l0.32,0.77l0.44,0.49l1.04,1.79l-1.44,0.99l-0.25,0.31l-1.57,2.97l-0.46,0.64l-0.32,0.33l-0.29,0.06l-0.6,0.07l-0.44,0.1l-0.49,0.17l-1.58,0.75l-0.46,0.02l-0.35,-0.04l-0.69,-0.24l-6.6,-0.71l-1.68,0.14l-0.53,-0.03l-3.61,-0.96l-0.79,-0.03l-0.56,0.1l-0.62,0.43l-0.28,0.23l-0.86,0.54l-1.51,0.71l-0.44,0.28l-0.84,0.81l-0.22,0.25l-0.38,0.35l-0.86,0.62l-0.54,0.65l0.02,0.14l0.21,0.11l0.37,0.07l0.28,0.13l0.11,0.18l-0.04,0.32l-0.45,1.27l-0.25,0.53l-1.11,1.82l-0.16,0.4l0.07,0.16l0.18,0.04l0.28,-0.02l0.35,-0.12l0.33,-0.16l0.23,-0.08l0.2,0.01l0.22,0.08l0.25,0.15l0.09,0.32l-0.09,0.4l-0.56,0.84l-0.22,0.45l-0.09,0.41l0.09,0.31l0.22,0.51l0,0.4l-0.09,0.61l-0.38,1.08l-0.15,0.67l-0.07,0.58l0.08,0.7l0.11,0.4l0.13,0.26l0.2,0.15l0.3,0.09l1.15,-0.14l0.29,0.01l0.15,0.08l0.07,0.18l0.04,0.35l0.1,0.29l0.07,0.64l-0.3,1.44l3.02,2.13l0.88,0.85l0.77,1.19l2.25,1.29l2.49,1.03l0.99,0.61l0.52,0.2l0.26,0l0.21,-0.19l0.19,-0.23l0.2,-0.17l0.28,-0.1l1.14,-0.04l0.53,-0.09l0.66,-0.01l0.37,0.16l0.46,0.46l0.34,0.14l0.66,-0.04l1.02,-0.27l1.5,-0.19l0.77,0.06l0.47,0.18l0.51,0.56l0.2,0.31l0.15,0.35l0.07,0.4l0.03,1.35l0.13,0.87l0.15,0.48l0.53,0.85l0.01,0l-3.2,0.09l-8.8,-0.62l-10.32,1.16l-6.21,-0.63l-1.39,-0.48l-2.69,-1.39l-2.81,-0.57l-1.09,-0.77l-0.72,-1.19l-1.84,-3.9l-0.25,-0.76l-0.05,-1.22l0.54,-3.28l-0.33,-0.22l-1.89,-2.95l-0.96,-0.62l-0.96,-0.21l-0.8,0.27l-0.47,0.8l0.01,0.96l1,3.31l0.05,9.36l-0.55,2.39l-1.49,-0.1l1.02,-1.69l-0.3,-2.43l-1.03,-2.23l-0.67,-0.55l-2,0.73l-0.44,0.32l-0.23,0.66l0.09,1.44l-0.31,0.59l-0.84,0.39l-0.57,-0.29l-0.49,-0.47l-0.58,-0.17l-0.52,0.37l-0.09,0.54l-0.2,0.47l-0.88,0.21l-2.59,-1.17l-1.58,-5.14l-2.71,-1.17l-3.44,0l-0.82,-0.23l-1.37,-1.02l-0.77,-0.23l-0.55,0.23l-1.05,1.02l-0.84,0.23l-0.18,0.09l-0.14,0.2l-0.22,0.2l-0.43,0.09l-0.22,-0.14l-0.18,-0.67l-0.31,-0.25l-2.98,-1l-0.36,-0.23l-0.84,-0.37l-0.85,-0.02l-0.39,0.85l-0.7,0.32l-1.57,0.08l-1.67,-0.18l-0.99,-0.45l-0.44,0l-0.19,0.94l-0.46,0.25l-1.35,-0.19l0.21,0.31l0.12,0.21l0.2,0.54l-0.79,-0.01l-3.34,-0.41l-1.02,-0.4l-1.8,-2.01l-0.65,-1.08l-0.26,-1.13l-1.24,-1.3l-10.13,-4.09l-1.04,-0.6l-1.08,-0.89l-0.64,-0.37l-1.43,-0.15l-0.6,-0.23l-0.35,-0.43l-0.82,-1.42l-0.07,-0.31l-0.97,0.01l-1.32,-0.16l-1.21,-0.6l-0.67,-1.32l0.4,-1.21l0.85,-0.74l1.09,-0.46l0.89,-0.29l8.24,0.28l2.68,-0.69l1.91,0.3l2.17,-0.17l1.32,-0.24l1.91,0.46l1.63,0.14l3.68,-0.58l2.83,-1.22l0.81,0.15l0.74,-0.39l1.41,0l0.78,-0.18l1.03,-0.32l0.94,-0.95l0.67,-0.64l0.67,-0.28l-0.09,-1.63l0.29,-0.73l-0.18,-1.21l0.62,-2.17l-0.05,-0.84l-0.53,-0.18l0.11,-0.16l0.08,-0.13l0.06,-0.05l0.24,-0.11l0.31,-0.23l0.24,-0.23l0.92,-1.49l0.61,-0.8l0.41,-0.68l0.23,-0.57l0.14,-0.54l0.55,-3.92l-0.13,-1.16l-1.17,-1.04l-2.7,-1.67l-0.42,-0.73l0.03,-1.19l0.78,-1.96l0,-0.48l-0.3,-0.43l-0.92,-0.66l-1.1,-1.04l-1.17,-2.1l0.92,-2.9l0.18,-2.22l0.07,-0.32l-0.05,-0.53l-0.06,-0.24l-0.83,-1.23l-1.17,-1.52l-0.56,-0.52l-0.52,-0.41l-0.52,-0.2l-0.79,-0.1l-0.25,-0.14l-0.12,-0.25l0.18,-0.6l0.12,-0.28l0.08,-0.16l0.04,-0.06l0.4,-0.35l1.45,-1l0.66,-0.93l0.28,-0.12l0.18,-0.23l-0.02,-0.22l-0.32,-0.42l-0.61,-0.5l-0.04,-0.29l0.14,-0.39l0.5,-0.71l0.37,-0.21l0.37,-0.01l0.69,0.41l0.19,0.07l0.11,-0.03l-0.02,-0.54l-0.13,-0.99l-0.91,-4.08l0.72,-0.95l0.1,-0.63l0,0l1.84,0.01l1.13,-0.16l0.96,-0.5l0.81,0.44l0.8,0.06l0.85,-0.04l0.96,0.12l0.49,0.3l1.25,1.02l1.52,0.89l0.25,1.56l-0.23,1.79l-0.35,1.34l-0.43,0.61l-0.45,0.3l-0.01,0.24l0.89,0.44l0.81,0.11l0.8,-0.2l1.07,-0.43l0.28,-0.4l0.45,-1.9l0.25,-0.65l0.59,-0.55l0.53,-0.18l0.65,-0.02l6.02,-1.05l0.8,-0.35l0.77,-0.84l1.77,-0.51l3.37,-0.51l1.06,-0.37l2.66,-1.31l1.75,-1.35l3.16,-1.87l1.18,-0.36l1.33,0.53l-1.02,0.88l-1.98,0.83l-3.25,0.85l-3.88,2.39l-1.01,0.89l0,0.49l3.17,0.82l4.08,4.79zm33.8,-11.5l0,0l0.1,0.23l-0.06,0.48l-0.42,0.15l-0.53,-0.3l-0.51,-0.02l-0.33,0.49l-0.28,0.19l-1.52,-0.69l-0.84,-0.27l-0.5,-0.08l-1.32,0.14l-0.77,-0.06l-2.04,-0.75l-0.7,-0.17l-0.52,-0.72l-0.42,-0.21l0.29,-0.42l1.39,0.17l2,0.76l2.5,0.56l4.48,0.52zm-14.35,-5.11l0,0l1.96,1.21l0.49,-0.03l0.33,0.11l0.23,0.67l-0.55,0.65l-0.82,-0.14l-0.8,-0.26l-0.85,-0.12l-0.81,-0.34l-0.35,-0.55l-0.31,-0.33l-0.64,-0.22l0.49,-0.46l1.63,-0.19z"/>
  <path fill="#d6552c" id="CU-15" d="m162.67335,53.4183l0,0l-0.75,0.61l-0.64,-0.95l0.53,-0.45l0.33,-0.43l0.53,0.82l0,0.4zm11.47,1.18l0,0l-0.3,0.5l-0.32,-0.32l0.15,-4.88l-0.18,-0.65l-0.04,-0.4l0.27,-0.07l0.35,0.33l0.27,0.58l0.1,0.31l0.27,0.93l0.22,1.79l-0.42,1.36l-0.37,0.52zm-1.12,-38.88l0,0l1.23,0.55l0.85,-0.45l0.39,-0.35l0.49,-0.13l0.57,0.16l0.72,0.99l0.1,0.71l-0.61,0.91l-1.43,1.21l-0.06,0.17l0.23,0.34l0.53,0.4l2.63,1.13l0.18,-0.02l0.16,-0.08l0.25,0.19l0.16,0.19l0.65,2.59l-0.1,2.69l0,2.06l-0.88,1.91l-0.58,2.53l0,2.86l1.46,3.01l1.46,2.06l0.9,0.53l0.94,0.59l0.24,0.98l-0.26,1.64l-4.71,0.63l-3.77,-0.93l-0.83,0.17l-1.39,0.72l-0.7,0.17l-3.33,-0.72l-2.54,0.6l-7.55,-2.03l-1.53,0.03l-1.49,0.77l-0.73,1.26l-0.24,1.5l-0.02,1.53l-0.44,1.4l-1.05,0.72l-0.66,0.22l0,0l-0.03,-0.31l-0.21,-0.45l-0.56,-0.84l-2.37,-2.68l-0.32,-0.61l-1.41,-3.3l-0.54,-0.96l-0.46,-0.63l-0.4,-0.31l-0.66,-0.37l-0.25,-0.19l-0.87,-1.17l-1.18,-2.04l-0.36,-0.49l-0.29,-0.27l-0.79,-0.36l-0.16,-0.12l-0.11,-0.14l0.1,-0.15l0.33,-0.14l1.74,-0.2l0.57,-0.21l0.37,-0.32l1.33,-1.58l0.09,-0.69l-0.32,-1.89l-1.81,-3.51l0.26,-1.54l0,-0.36l-0.33,-2.8l0.07,-0.43l0,0l0.14,-0.1l0.77,-1.92l1.01,-1.66l2.32,-0.05l2.56,0.41l1.72,-0.29l1.57,-0.57l6.48,0.31l6.64,-0.88l1.71,-0.71l1.47,0.1l2.63,-1.52l0,0l0.31,0.53z"/>
  <path fill="#d6552c" id="CU-03" d="m204.09335,6.3183l0,0l0.23,0.76l-0.13,0.78l0.4,0.69l1.21,1.52l-0.37,0.31l-0.68,0.04l-0.17,0.27l0.03,0.44l0.2,0.7l-0.07,0.33l-0.39,0.33l-0.17,0.22l-0.09,0.35l-0.09,1.32l-0.69,1.27l-2.51,-2.97l-0.42,-0.3l-0.63,-0.32l-0.3,0.1l-0.25,0.24l-0.12,0.25l-0.08,0.42l-0.36,0.97l-0.47,0.44l-0.41,0.28l-0.24,-0.04l-0.51,-0.73l-0.4,-0.43l-0.41,0.03l-0.08,0.11l0.05,0.22l0.11,0.3l0.01,0.38l-0.05,0.39l-0.17,0.65l-0.03,0.5l0.11,0.68l0.6,1.25l0.1,0.37l-0.06,0.28l-2.44,2.72l-0.54,1l-0.43,0.6l-0.63,0.25l-0.85,0l-0.71,-0.09l-0.75,-0.34l-1.84,0.12l-2.81,-0.26l-0.64,0.64l-0.28,0.55l-0.94,0.84l-0.49,0.21l-0.4,-0.09l-0.77,-0.95l-0.5,-0.33l-0.55,0.17l-1.16,0.47l-0.65,-2.59l-0.16,-0.19l-0.25,-0.19l-0.16,0.08l-0.18,0.02l-2.63,-1.13l-0.53,-0.4l-0.23,-0.34l0.06,-0.17l1.43,-1.21l0.61,-0.91l-0.1,-0.71l-0.72,-0.99l-0.57,-0.16l-0.49,0.13l-0.39,0.35l-0.85,0.45l-1.23,-0.55l-0.31,-0.53l0,0l0.47,-0.27l1.58,-0.49l0.4,-0.24l0.71,-1.1l0.36,-0.25l0.88,-0.11l0.68,-0.26l1.12,-0.69l2.12,-1.67l1.11,-0.66l2.85,-0.44l3.29,-1.43l5.01,-0.83l2.27,-0.95l4.93,1.2l1.57,-0.17l2.03,-0.51z"/>
  <path fill="#d6552c" id="CU-13" d="m643.84335,213.3583l0,0l0.88,-0.02l0.49,0.09l0.18,0.2l-0.07,0.52l-0.18,0.36l-0.18,0.32l-0.18,0.22l-0.09,0.16l0.24,0.32l0.53,0.45l2.12,1.45l1.19,0.31l0.29,1.24l0.1,0.26l0.1,0.2l0.26,0.26l1.2,0.63l2.26,0.19l5.17,-2.4l0.58,-0.15l0.8,-0.08l2.27,0.32l3.04,-0.28l3.1,-2.16l0.22,-0.55l0.21,-0.68l-0.38,-0.84l-0.07,-0.23l0.02,-0.24l0.09,-0.31l0.2,-0.27l0.16,-0.08l0.53,0.26l0.46,0.18l0.92,0.49l0.33,-0.09l0.53,-0.34l1.08,-0.86l1.42,-1.47l0.27,-0.35l0.23,-0.17l0.27,-0.13l0.43,-0.15l0.27,-0.15l0.24,-0.21l0.3,-0.07l0.41,0.1l1.14,0.92l1.33,0.42l3.13,-0.6l0.88,0l0.3,-0.06l0.36,-0.13l0.66,-0.32l0.14,0.24l0.04,0.51l-0.23,1.88l-0.12,0.36l-0.12,0.1l-0.48,0.21l-0.27,0.15l-0.18,0.22l-0.14,0.28l-0.07,0.26l-0.12,0.25l-0.17,0.27l-0.26,0.22l-0.3,0.17l0.08,0.28l0.45,0.6l1.12,0.98l1.86,2.54l-0.66,0.54l-0.33,0.64l-0.3,0.24l-0.35,0.07l-0.67,-0.24l-0.26,-0.13l-0.37,-0.07l-0.19,0.09l-0.12,0.24l-0.05,0.28l-0.01,0.38l-0.09,0.49l-0.28,0.62l-0.72,1.1l-0.83,0.68l-0.81,0.51l-0.9,0.37l-0.34,0.29l-0.13,0.22l0.28,0.65l0.76,1.55l0.17,1.26l-0.1,2.46l-0.12,0.42l-0.15,0.16l-0.24,0.18l-0.19,0.18l-0.19,0.29l-0.32,0.62l-0.07,0.34l0.03,0.48l0.41,1.83l0.36,1.1l0.18,0.32l0.36,1.01l0.06,0.11l0.13,0.16l0.68,0.49l-0.05,2.03l0.23,0.86l0.18,0.16l0.22,0.06l0.29,0.02l0.45,0.26l0.18,0.34l0.06,0.68l-0.12,0.41l-0.2,0.27l-1.7,0.85l-0.84,1.06l-0.3,0.18l-0.23,0l-0.97,0.42l0.1,2.83l0.33,1.14l0.94,1.58l0.45,0.54l1.54,1.44l4.34,6.1l0,0.01l-0.09,0l-0.78,-0.08l-2.39,-0.54l-0.7,-0.38l-0.5,-0.08l-0.21,0.15l-0.59,0.7l-0.45,0.23l-1.93,0.26l-2.29,-0.04l-2.14,-0.42l-1.49,-0.88l-2.37,0.35l-2.92,-1.56l-2.96,-2.11l-2.49,-1.31l-1.57,-0.18l-5.12,0.18l-1.36,-0.17l-2.79,-0.74l-1.46,-0.18l-2.75,0.32l-1.43,0.41l-0.95,0.6l-1.05,0.15l-9.44,-2.29l-6.45,-0.75l-3.28,0.13l-5.71,1.56l-2.73,0.39l-5.19,0l-1.55,0.22l-3,1.05l-1.58,0.34l-9.1,-0.55l-9.26,0.79l-1.48,0.76l-1.57,-0.06l-1.57,-0.36l-1.49,-0.11l-1.1,0.48l-2.31,1.88l-1.52,0.76l-1.68,0.43l-5.42,0.25l0,-0.01l-0.04,-1.73l-0.64,-1.33l-0.22,-0.36l-0.05,-0.23l0.01,-0.23l0.62,-0.2l4.16,-0.46l0.51,-0.15l0.37,-0.26l2.71,-3.66l0.35,-0.18l0.53,-0.12l1.71,-0.11l1,0.09l1.56,-0.03l1.11,-0.21l0.69,-0.31l1.19,-1.23l1.16,-0.71l0.71,0.66l0.15,0.19l0.3,0.27l0.24,0.15l0.24,0.08l0.25,0.06l0.19,0.09l0.19,0.14l0.18,0.22l0.27,0.17l0.24,-0.01l0.26,-0.28l0.13,-0.24l0.26,-0.18l0.38,-0.15l1.36,-0.35l0.42,-0.01l0.44,0.36l0.62,0.73l0.45,0.32l0.57,0.22l1.18,0.28l0.26,0.11l0.14,0.08l0.39,0.04l0.62,-0.01l1.27,-0.2l1.68,-0.02l0.25,-0.14l0.25,-0.67l0.14,-0.12l0.43,0.11l0.59,0.22l1.99,0.48l0.5,-0.13l0.09,-0.36l-0.57,-1.53l-0.09,-0.43l-0.02,-0.21l0.48,-0.29l2.02,0.34l1.68,0.11l0.5,-0.05l0.69,-0.17l0.86,-0.34l1.02,-0.55l1.08,-0.75l2.05,-1.95l0.74,-1.42l-0.25,-6.42l-0.4,-2.25l-0.22,-0.53l0.06,-0.38l0.46,-0.28l0.63,-0.7l1.09,-1.13l-0.1,-0.75l0.02,-0.23l-0.01,-0.36l1.5,-6.13l0.45,-0.76l0.55,-0.48l1.14,-0.03l0.7,0.06l1.55,0.3l0.67,0l0.38,-0.15l0.24,-0.52l0.07,-0.34l0.06,-0.72l0.12,-0.31l0.25,-0.34l0.43,-0.45l0.34,-0.45l0.24,-0.52l0.12,-0.66l-0.02,-0.69l-0.27,-1.42l0.07,-0.34l0.31,-0.11l0.54,-0.04l0.72,0.44l0.37,0.4l0.16,0.47l0,0.47l-0.06,0.46l0,0.47l0.07,0.41l0.36,0.72l0.35,1.01l0.26,0.33l0.55,-0.05l1,-0.81l1.86,-2.53l1.73,-0.1l0.64,0.03l0.59,0.13l0.56,0.2l0.64,0.33l0.37,0.11l0.32,-0.03l0.36,-0.11l0.04,0.15l-0.06,0.32l-0.55,1.21l0.24,0.58l1.34,-1.28l0.15,-0.24l0.44,-1.64l0.19,-1.71l-0.47,-1.15l-0.14,-0.71l-0.19,-0.24l-0.25,-0.11l-0.04,-0.2l0.17,-0.26l1.12,-0.74l0.9,-0.81l0.36,-0.23l1.28,-0.52l0.17,-0.39l-0.06,-0.52l-0.5,-1.23l-0.18,-0.65l0.16,-0.48l0.18,-0.1l0.98,0.44l3.39,2.53l0.67,1.12l-0.31,0.8l0.24,0.29l0.53,0.22l1.24,0.12z"/>
  <path fill="#d6552c" id="CU-10" d="m618.01335,155.8983l0,0l-0.05,0.1l-0.27,4.33l-0.55,1.28l-0.37,0.24l-0.28,0.26l-0.37,0.5l-0.02,0.48l0.24,1.37l-0.12,0.48l-0.38,0.51l-1.93,1.21l-1.55,0.65l-3.18,2.06l-1.15,0.98l-0.41,0.22l-1.77,1.41l-1.35,1.39l-0.86,2.14l-0.2,1.14l-0.25,0.22l-0.49,0.07l-0.36,-0.06l-0.42,-0.16l-0.67,0.05l-0.93,0.24l-3.77,1.64l-1.16,0.27l-0.5,0.05l-0.43,-0.04l-0.32,-0.13l-0.4,-0.28l-0.71,-0.64l-0.85,-0.39l-0.91,2.62l0.07,5.41l-0.11,1.07l-0.24,0.73l-1.31,1.71l-0.52,1.01l-0.2,0.7l-0.11,1l0.02,0.6l0.16,0.43l0.78,0.86l0.37,0.54l0.27,0.75l-0.05,0.47l-0.19,0.34l-0.73,0.49l-0.68,0.26l-2.88,1.17l-0.3,0.2l-1.18,1.02l-0.76,-0.33l-1.33,-2.85l-0.66,-0.55l-1.06,-0.27l-1.62,0.02l-3.04,-0.37l-1.43,0.02l-0.57,0.08l-2.99,-0.53l-1.59,0.54l-1.06,0.15l-0.97,0.04l-1.18,0.38l-0.63,0.02l-0.47,-0.16l-1.04,-0.75l-2.6,-0.98l-7.02,-0.21l-1.67,-0.46l-0.18,-0.46l-0.27,-0.46l-0.46,0l-0.55,0.25l-1.11,0.8l-0.46,0.23l-0.29,0l-0.29,-0.73l-0.38,-0.44l-0.26,0.09l-0.2,0.35l-0.09,0.81l-0.14,0.45l-0.17,0.37l-0.72,0.82l-0.25,0.44l-0.17,0.48l-0.08,0.18l-0.14,0.17l-0.3,0.18l-1.11,0.52l-0.3,0.22l-0.01,0l-0.46,-0.16l-2.04,0.18l-2.25,0.53l-1.88,0.82l-0.93,1.08l-0.68,-0.43l-0.41,0.01l-0.36,0.22l-0.5,0.2l-0.76,0.2l-0.46,0.19l-0.48,0.14l-0.79,-0.01l-1.25,-0.21l-3.63,-1.35l-2.79,1.49l-0.63,0.07l-1.04,-0.79l-0.48,-0.25l-0.54,-0.11l-2.11,0.11l-0.56,-0.07l-1.39,-0.41l-0.48,-0.28l-0.26,0.17l-0.92,0.07l-3.52,-0.21l-1.22,-0.4l-1.9,-1.31l-0.65,-0.19l0.01,-0.01l0.95,-6.25l3.72,-5.27l1.69,0.12l4.36,-0.85l1.08,-0.44l0.57,-0.41l-0.04,-0.44l0.01,-0.54l0.07,-0.6l0.3,-1.24l0.05,-0.44l-0.06,-0.48l-0.12,-0.5l0,-0.61l0.55,-0.38l0.48,-0.08l0.39,0.17l0.4,0.53l0.28,0.48l0.36,0.49l0.27,0.23l0.39,0.07l0.82,0.05l0.37,0.09l0.54,0.07l0.23,-0.19l0.14,-0.24l-0.01,-0.97l0.38,-1.03l0.72,-0.4l1.45,-0.43l1.04,-0.15l0.2,-1.12l0.18,-0.25l0.19,-0.01l0.92,0.07l0.96,-0.1l1.3,-0.26l0.47,-0.61l0.23,-0.53l0.07,-0.53l0.3,-0.67l0,-0.11l-0.16,-0.58l-0.05,-0.33l-0.01,-0.44l0.13,-0.26l0.26,-0.18l1.03,-0.51l0.5,-0.6l0.24,-0.17l0.11,-0.01l0.03,0.16l0.09,0.19l0.11,0.19l0.31,0.41l0.21,0.24l0.62,0.96l0.15,0.35l0.06,0.35l-0.04,0.46l0.06,0.19l0.17,0.16l1.25,0.32l1.19,0.09l0.61,0.12l0.35,0.11l0.14,0.2l0.03,0.17l-0.06,0.21l-0.48,0.72l-0.05,0.22l-0.01,0.24l0.23,0.51l0.72,0.75l0.73,-1.6l0.48,-0.38l0.43,-0.23l0.33,0.08l0.34,0.25l0.72,0.69l0.42,0.22l0.59,0.17l0.59,-0.3l2.06,-4.97l1.01,-1.42l0.85,-0.4l0.67,-0.43l0.35,-0.15l2.1,-0.45l0.46,-0.15l0.92,-0.81l0.47,-0.56l2.61,-4.34l-0.32,-4.96l0.05,-0.52l0.37,-0.9l4.04,-3.75l0.11,-0.28l-0.15,-0.27l-0.41,-0.11l-2.74,0.01l-0.32,-0.22l-0.35,-0.45l-0.32,-1.26l0.06,-0.72l0.44,-1l0.59,-0.71l1.14,-3.52l1.41,0.17l1.67,0.41l1.28,-0.06l1.94,-0.49l0.9,-0.42l2.04,-1.6l1.14,-0.46l0.58,-0.57l0.17,-0.15l1.07,0.76l2.59,1.25l3.95,0.85l0.93,0.72l-0.49,1.05l1.47,0l-0.42,1.58l-0.57,0.79l-0.87,0.27l-2.53,0.16l-1.02,0.42l-0.72,0.73l-0.27,1.08l1,1.9l3.66,-1.93l-0.21,1.91l0.69,-0.5l0.31,-0.79l0.18,-0.94l0.28,-0.92l-0.49,0l1,-1.5l0.3,-0.77l0.12,-0.92l4.4,1.52l0.41,-0.02l0.56,-0.34l0.32,0.13l1.2,0.81l1.93,0.47l0.77,0.05l1.11,0.49l0.97,1.08l0.42,1.09l-0.52,0.49l-1.16,0.26l-4.01,1.84l0.28,-1.15l-0.66,-0.68l-0.71,-0.03l0.11,0.81l-0.35,1.21l0.96,0.5l1.44,0.24l1.14,0.46l1.08,0.84l1.21,0.54l1.35,0.3l1.52,0.1l0,-0.48l-1.56,-0.55l-0.47,-0.34l-0.42,-0.68l-0.48,-1.1l0.04,-0.49l1.38,-0.55l1.25,-0.04l1.7,0.54l1.59,0.95l0.92,1.22l0.45,0l0,-1.62l0.48,0l-0.25,3.07l-0.82,1.01l-3.81,0.16l0,0.52l1.46,0l-0.69,0.42l-0.28,0.11l0.57,0.98l0.71,-0.03l0.79,-0.39l0.86,-0.04l0.61,0.51l0.72,1.34l0.66,0.24l0.37,-0.16l0.49,-0.37l0.43,-0.43l0.18,-0.37l0.17,-0.25l0.4,-0.01l0.47,0.05l0.38,-0.03l2.11,-1.24l0.82,-0.33l-1.11,-0.39l-2.33,-0.32l-0.91,-0.34l-0.87,-1.02l-0.23,-1.23l0.48,-1.03l1.31,-0.43l8.56,0.25l1.76,0.56l1.02,0.85l2.31,0.9l0.21,0.18z"/>
  <path fill="#d6552c" id="CU-11" d="m677.23335,194.3683l0,0l0.25,0.92l-1.34,-0.01l-2.37,-0.65l-1.27,-0.2l-1.13,-0.59l-0.73,-0.97l-0.05,-1.37l3.53,-0.65l0.86,0.12l0.64,0.59l1.03,1.95l0.58,0.86zm-45.85,-26.98l0,0l0.71,0.82l0.49,-0.06l0.72,-0.76l1.14,-0.64l0.8,-0.19l1.03,0.26l0.73,0.44l0.5,0.55l0.28,0.72l0,0.96l0.45,0l0.14,-0.37l0.23,-0.38l0.15,-0.35l0.49,1.18l0.61,0.26l0.43,-0.59l-0.06,-1.37l0.6,0.1l1.92,0.05l0.89,-0.15l0.45,-0.3l1.12,-1.01l0.61,-0.21l0.89,0.04l0.9,0.19l0.69,0.38l0.59,1.34l0.61,0.12l0.37,-0.33l-0.36,-0.7l3.69,-2.66l0.39,0.09l1.07,0.49l0.22,0.2l0.3,0.58l0.7,0.04l1.25,-0.36l2.47,0l2.02,0.33l1.41,1.22l0.64,2.64l2.82,-0.59l1.63,1.05l2.48,3.78l-1.46,3.14l-0.43,0.53l-0.8,0.66l-0.29,0.43l-0.13,0.49l-0.16,1.14l-0.15,0.45l-0.61,0.88l-1,1.01l-1.17,0.71l-1.17,-0.03l-0.36,-0.73l-0.27,-1.16l-0.43,-0.75l-0.9,0.55l-0.58,-0.37l-0.47,-0.06l-0.42,0.15l-0.43,0.28l0.58,0.09l0.43,0.16l0.27,0.32l0.14,0.52l-2.03,0.15l0.04,0.93l0.93,1.32l0.62,1.31l0.44,0l0.8,-1.21l1.88,-0.56l2.14,-0.1l1.57,0.21l2.96,1.52l0.46,0.38l0.08,1.06l0.29,0.81l0.6,0.46l0.99,0l-0.57,1.82l-1.01,0l-1.14,-0.76l-0.97,-0.5l-0.54,-0.18l-0.23,-0.46l-0.16,-0.55l-0.32,-0.47l-0.52,-0.43l-0.23,-0.12l-3.92,0.61l-1.38,0.49l-4.69,-0.55l0.38,0.88l-0.1,0.98l-0.72,1.85l0.05,0.46l-0.06,0.97l-0.2,0.9l-0.33,0.8l0.67,0.68l0.83,1.65l2.75,1.57l1.12,0.37l0.49,-0.8l0.79,-1.67l3.42,-2.89l0.72,-1.52l1.13,0.91l0.69,1.19l0.14,1.31l-0.49,1.34l1.84,-0.23l0.67,0.23l-0.31,0.8l-0.12,0.75l0.73,0.52l1.59,0.54l-0.4,-1.69l4.21,1l1.11,-1.4l0.45,0l0.34,0.42l0.47,0.43l0.56,0.39l0.63,0.33l0.53,-1.57l-1.18,-0.48l-0.63,-0.1l-0.72,0.06l0.89,-1.19l1.71,-0.5l1.87,-0.04l1.39,0.16l1.25,0.52l1.47,0.94l0.49,0.87l-1.7,0.33l0.62,0.98l0.35,1.06l0.49,0l0.08,-0.33l0.41,-0.71l0.61,1.64l1.74,0.38l4.04,-0.46l-1.24,-0.83l-2.71,-1.36l-1.42,-0.37l0.91,-0.99l1.75,-0.46l1.88,-0.01l1.32,0.37l-0.49,-0.57l1.1,0.09l3.34,0.7l0.88,0.49l0.25,0.53l-1.17,0.33l0,0.52l2,0.52l0.13,-0.16l0.02,-0.1l0.06,-0.11l0.23,-0.15l0.84,0.62l1.23,-0.33l1.18,0.06l0.66,1.78l0.14,-0.41l0.33,-0.69l0.06,-0.51l0.66,0.51l0.65,0.31l0.6,0.03l0.53,-0.33l-1.01,-1.04l5.75,-0.73l1.39,0.47l0.69,0.38l0.73,0.17l0.57,0.29l0.23,0.72l0.51,0.44l1.15,0.03l1.76,-0.21l1.18,0.86l1.02,1.04l1.32,0.86l5.65,0.68l1.48,0.47l1.11,0.79l-0.72,0.41l-0.3,0.11l1.02,1.83l0.05,0.83l0.17,0.21l0.3,0.03l0.46,0.28l0.48,0.36l-0.9,0.48l-0.7,0.56l-0.24,0.14l-0.22,0.05l-0.56,-0.01l-0.3,0.03l-0.25,0.13l-0.55,0.48l-0.38,0.44l-0.51,0.75l-0.36,0.73l-0.4,1.19l-0.09,1.49l0.6,2.04l-2.89,1.19l-0.2,0.15l-0.2,0.22l-0.1,0.23l-0.11,0.3l-0.08,0.44l-0.11,0.24l-0.28,0.13l-0.45,-0.1l-0.96,-0.45l-0.73,-0.54l-0.79,-0.48l-2.61,-1.22l-2.41,-1.75l-0.69,-0.38l-0.67,-0.06l-1.93,0.29l-0.39,0.12l-0.15,0.14l0.28,0.6l0.08,0.22l0.02,0.2l-0.15,0.54l-0.04,0.24l0.01,0.12l0.09,0.03l0.56,0.06l0.43,0.35l0.26,0.34l0.18,0.33l0.09,0.22l0.06,0.21l-0.01,0.22l-0.06,0.28l-0.29,0.07l-0.47,-0.09l-1.93,-1.37l-2.32,-0.19l-1.59,-1.31l-2.03,-2.17l-0.44,-0.37l-0.39,-0.05l-0.46,0.12l-1.65,0.63l-1.32,0.72l-0.44,0.06l-0.35,-0.07l-0.6,-0.51l-0.37,-0.07l-0.48,0.12l-1.62,0.95l-0.96,0.88l-0.18,0.43l-0.22,2.29l-0.65,1.17l-1.05,-0.79l-0.1,-0.24l-0.26,-0.18l-0.27,0.03l-1.31,0.65l-0.32,0.03l-0.31,-0.13l-0.64,-0.4l-0.48,-0.43l-0.09,-0.13l-0.25,-0.42l-0.39,-0.39l-0.68,-0.46l-0.31,-0.29l-0.46,-0.14l-0.54,0.1l-1.38,0.98l-0.82,0.22l-1.86,-2.54l-1.12,-0.98l-0.45,-0.6l-0.08,-0.28l0.3,-0.17l0.26,-0.22l0.17,-0.27l0.12,-0.25l0.07,-0.26l0.14,-0.28l0.18,-0.22l0.27,-0.15l0.48,-0.21l0.12,-0.1l0.12,-0.36l0.23,-1.88l-0.04,-0.51l-0.14,-0.24l-0.66,0.32l-0.36,0.13l-0.3,0.06l-0.88,0l-3.13,0.6l-1.33,-0.42l-1.14,-0.92l-0.41,-0.1l-0.3,0.07l-0.24,0.21l-0.27,0.15l-0.43,0.15l-0.27,0.13l-0.23,0.17l-0.27,0.35l-1.42,1.47l-1.08,0.86l-0.53,0.34l-0.33,0.09l-0.92,-0.49l-0.46,-0.18l-0.53,-0.26l-0.16,0.08l-0.2,0.27l-0.09,0.31l-0.02,0.24l0.07,0.23l0.38,0.84l-0.21,0.68l-0.22,0.55l-3.1,2.16l-3.04,0.28l-2.27,-0.32l-0.8,0.08l-0.58,0.15l-5.17,2.4l-2.26,-0.19l-1.2,-0.63l-0.26,-0.26l-0.1,-0.2l-0.1,-0.26l-0.29,-1.24l-1.19,-0.31l-2.12,-1.45l-0.53,-0.45l-0.24,-0.32l0.09,-0.16l0.18,-0.22l0.18,-0.32l0.18,-0.36l0.07,-0.52l-0.18,-0.2l-0.49,-0.09l-0.88,0.02l-1.24,-0.12l-0.53,-0.22l-0.24,-0.29l0.31,-0.8l-0.67,-1.12l-3.39,-2.53l-0.98,-0.44l-0.18,0.1l-0.16,0.48l0.18,0.65l0.5,1.23l0.06,0.52l-0.17,0.39l-1.28,0.52l-0.36,0.23l-0.9,0.81l-1.12,0.74l-0.17,0.26l0.04,0.2l0.25,0.11l0.19,0.24l0.14,0.71l0.47,1.15l-0.19,1.71l-0.44,1.64l-0.15,0.24l-1.34,1.28l-0.24,-0.58l0.55,-1.21l0.06,-0.32l-0.04,-0.15l-0.36,0.11l-0.32,0.03l-0.37,-0.11l-0.64,-0.33l-0.56,-0.2l-0.59,-0.13l-0.64,-0.03l-1.73,0.1l-1.77,-2.8l-2.12,-2.18l-0.75,-0.51l-0.62,-0.31l-1.93,-0.46l-1.46,-0.68l-0.88,-0.28l-1.8,-0.32l-1.6,-0.63l-0.87,-0.09l0.4,-1.61l-0.06,-0.39l-0.21,-0.51l-0.27,-0.2l-0.24,-0.09l-0.21,-0.02l-0.32,0.07l-0.15,0.11l-0.2,0.17l-0.21,0.12l-0.22,0.01l-0.62,-0.27l-2.49,-0.76l-3.31,-1.98l-1.28,-0.57l-3.35,-0.81l-0.66,-0.33l-0.33,-0.28l0,-0.33l0.12,-1.13l-0.04,-0.89l-0.08,-0.57l-0.42,-1.26l-0.78,-0.04l-1.92,1.01l-0.73,0.16l-0.69,-0.05l-0.53,-0.19l-1.04,-0.22l-0.58,-0.25l-0.46,-0.39l-0.66,-1.11l-0.25,-0.19l-0.23,0l-0.68,0.4l-0.71,0.26l-0.53,-0.13l-0.4,-0.26l-0.3,-0.38l-0.35,-0.59l0.68,-0.26l0.73,-0.49l0.19,-0.34l0.05,-0.47l-0.27,-0.75l-0.37,-0.54l-0.78,-0.86l-0.16,-0.43l-0.02,-0.6l0.11,-1l0.2,-0.7l0.52,-1.01l1.31,-1.71l0.24,-0.73l0.11,-1.07l-0.07,-5.41l0.91,-2.62l0.85,0.39l0.71,0.64l0.4,0.28l0.32,0.13l0.43,0.04l0.5,-0.05l1.16,-0.27l3.77,-1.64l0.93,-0.24l0.67,-0.05l0.42,0.16l0.36,0.06l0.49,-0.07l0.25,-0.22l0.2,-1.14l0.86,-2.14l1.35,-1.39l1.77,-1.41l0.41,-0.22l1.15,-0.98l3.18,-2.06l1.55,-0.65l1.93,-1.21l0.38,-0.51l0.12,-0.48l-0.24,-1.37l0.02,-0.48l0.37,-0.5l0.28,-0.26l0.37,-0.24l0.55,-1.28l0.27,-4.33l0.05,-0.1l1.66,1.4l1.03,0.66l7.6,2.91l2.28,1.53l0.31,1.8l0.25,0.63l-0.05,1.64l0.29,0.92z"/>
  <path fill="#d6552c" id="CU-12" d="m565.55335,195.2183l0,0l0.63,-0.02l1.18,-0.38l0.97,-0.04l1.06,-0.15l1.59,-0.54l2.99,0.53l0.57,-0.08l1.43,-0.02l3.04,0.37l1.62,-0.02l1.06,0.27l0.66,0.55l1.33,2.85l0.76,0.33l1.18,-1.02l0.3,-0.2l2.88,-1.17l0.35,0.59l0.3,0.38l0.4,0.26l0.53,0.13l0.71,-0.26l0.68,-0.4l0.23,0l0.25,0.19l0.66,1.11l0.46,0.39l0.58,0.25l1.04,0.22l0.53,0.19l0.69,0.05l0.73,-0.16l1.92,-1.01l0.78,0.04l0.42,1.26l0.08,0.57l0.04,0.89l-0.12,1.13l0,0.33l0.33,0.28l0.66,0.33l3.35,0.81l1.28,0.57l3.31,1.98l2.49,0.76l0.62,0.27l0.22,-0.01l0.21,-0.12l0.2,-0.17l0.15,-0.11l0.32,-0.07l0.21,0.02l0.24,0.09l0.27,0.2l0.21,0.51l0.06,0.39l-0.4,1.61l0.87,0.09l1.6,0.63l1.8,0.32l0.88,0.28l1.46,0.68l1.93,0.46l0.62,0.31l0.75,0.51l2.12,2.18l1.77,2.8l-1.86,2.53l-1,0.81l-0.55,0.05l-0.26,-0.33l-0.35,-1.01l-0.36,-0.72l-0.07,-0.41l0,-0.47l0.06,-0.46l0,-0.47l-0.16,-0.47l-0.37,-0.4l-0.72,-0.44l-0.54,0.04l-0.31,0.11l-0.07,0.34l0.27,1.42l0.02,0.69l-0.12,0.66l-0.24,0.52l-0.34,0.45l-0.43,0.45l-0.25,0.34l-0.12,0.31l-0.06,0.72l-0.07,0.34l-0.24,0.52l-0.38,0.15l-0.67,0l-1.55,-0.3l-0.7,-0.06l-1.14,0.03l-0.55,0.48l-0.45,0.76l-1.5,6.13l0.01,0.36l-0.02,0.23l0.1,0.75l-1.09,1.13l-0.63,0.7l-0.46,0.28l-0.06,0.38l0.22,0.53l0.4,2.25l0.25,6.42l-0.74,1.42l-2.05,1.95l-1.08,0.75l-1.02,0.55l-0.86,0.34l-0.69,0.17l-0.5,0.05l-1.68,-0.11l-2.02,-0.34l-0.48,0.29l0.02,0.21l0.09,0.43l0.57,1.53l-0.09,0.36l-0.5,0.13l-1.99,-0.48l-0.59,-0.22l-0.43,-0.11l-0.14,0.12l-0.25,0.67l-0.25,0.14l-1.68,0.02l-1.27,0.2l-0.62,0.01l-0.39,-0.04l-0.14,-0.08l-0.26,-0.11l-1.18,-0.28l-0.57,-0.22l-0.45,-0.32l-0.62,-0.73l-0.44,-0.36l-0.42,0.01l-1.36,0.35l-0.38,0.15l-0.26,0.18l-0.13,0.24l-0.26,0.28l-0.24,0.01l-0.27,-0.17l-0.18,-0.22l-0.19,-0.14l-0.19,-0.09l-0.25,-0.06l-0.24,-0.08l-0.24,-0.15l-0.3,-0.27l-0.15,-0.19l-0.71,-0.66l-1.16,0.71l-1.19,1.23l-0.69,0.31l-1.11,0.21l-1.56,0.03l-1,-0.09l-1.71,0.11l-0.53,0.12l-0.35,0.18l-2.71,3.66l-0.37,0.26l-0.51,0.15l-4.16,0.46l-0.62,0.2l-0.01,0.23l0.05,0.23l0.22,0.36l0.64,1.33l0.04,1.73l0,0.01l-3.82,0.18l-1.82,-0.3l-3.57,-1.43l-1.83,-0.34l-0.99,0.74l-0.49,0l-0.53,-0.51l-0.73,-0.11l-0.71,0.32l-0.47,0.77l-1.82,-0.6l-2.08,-0.16l-1.85,0.49l-1.13,1.35l1.95,0l0,0.52l-1.27,0.06l-2.01,0.79l-1.34,0.19l-6.63,0.18l-4.54,1.12l-2.57,0.26l-3.01,-0.24l-4.42,1.19l-1.38,0.09l-0.97,-0.17l-0.97,-0.44l-0.78,-0.68l-0.48,-0.83l0.09,-1.41l1.33,-2.51l0.09,-0.71l0.52,-0.16l0.91,-0.1l0.52,-0.26l0.48,-0.47l0.49,-0.79l0.5,-0.3l-0.22,-0.83l0.33,-0.58l1.35,-1.24l1.6,-2.21l0.11,-0.38l0.26,-0.58l3.41,-3.1l-0.14,-0.67l-0.96,-0.96l0.12,-0.46l0.64,0.04l1.89,0.62l0.71,-0.68l1.37,-0.44l0.32,-0.3l0.2,-0.45l1.27,-1.91l1.24,-0.87l3.07,-1.64l1.18,-1.73l1.35,-0.99l7.2,-3.4l1.38,-0.22l1.06,-0.58l1.13,-2.75l1.03,-0.88l0.21,-0.03l0.25,-0.01l0.47,0.04l-0.4,0.89l0.43,0.44l0.92,0.04l1.05,-0.28l0.97,-0.64l0.76,-0.94l0.49,-1.14l0.18,-1.23l0.52,-0.44l2.94,-1.86l0.23,-3.66l0.48,-0.55l0.55,-0.5l0.96,-2.68l-2.22,-3.6l-0.7,-0.65l-1.92,-1.3l-2.56,-0.99l-0.7,-0.1l0.46,0.86l-0.44,0.52l-1.33,-0.92l-1.11,-0.52l-0.74,-0.77l-0.28,-1.7l0.24,-0.52l0.57,-0.3l0.65,-0.21l0.49,-0.28l1.51,-2.09l0,-0.52l-2.6,-1.66l-1.38,-0.29l-0.5,1.43l-1.44,-1.43l-1.22,-1.91l-1.41,-1.68l-1.56,-0.56l0.01,0l0.3,-0.22l1.11,-0.52l0.3,-0.18l0.14,-0.17l0.08,-0.18l0.17,-0.48l0.25,-0.44l0.72,-0.82l0.17,-0.37l0.14,-0.45l0.09,-0.81l0.2,-0.35l0.26,-0.09l0.38,0.44l0.29,0.73l0.29,0l0.46,-0.23l1.11,-0.8l0.55,-0.25l0.46,0l0.27,0.46l0.18,0.46l1.67,0.46l7.02,0.21l2.6,0.98l1.04,0.75l0.47,0.16z"/>
  <path fill="#d6552c" id="CU-14" d="m772.08335,230.7583l0,0l0.87,1.08l0.56,1.29l0.33,1.41l0.16,1.47l-0.65,1.67l-1.5,0.92l-1.51,0.6l-1.01,1.05l-1.45,0.84l-0.48,0.17l-0.37,0.41l-0.41,2.71l-2.25,2.01l-2.65,-0.08l-3.01,-0.78l-3.32,-0.11l-4.5,0.94l-3.04,0.23l-5.87,1.37l-2.73,-0.52l-2.26,0.94l-4.5,-0.73l-5.39,0.93l-1.75,0.17l-1.79,0.83l-1.23,1.04l-1.11,1.2l-1.22,0.98l-1.59,0.41l-1.68,0.04l-0.99,0.17l-0.59,0.62l-0.43,1.58l-1.17,1.83l-2.3,0.87l-2.55,0.3l-0.38,-0.89l-0.52,-0.28l-0.37,0.11l-0.21,0.55l0.01,0.72l-1.83,0.59l-0.23,-0.01l0.01,-5.66l-3.01,0l0.13,-0.36l0.39,-0.37l1.05,-0.72l0.93,-0.17l0.85,-1.62l0.38,-0.89l-0.43,-0.73l-0.11,-1.96l-1.46,0.28l-0.68,1.04l-0.45,0.79l-0.51,0.93l-0.58,-0.36l-0.75,-0.39l-1.08,0.42l-0.43,0.9l-0.14,0.75l0.24,0.8l0.38,0.11l0.47,0.12l0.29,-0.07l0.19,-0.28l0.15,-0.32l0.15,0.35l0.31,0.79l-0.87,0.49l-0.08,0.54l-1.33,0l-3.59,2.53l-0.28,2.85l0,0l-3.7,0.89l-6.97,0.44l0,-0.01l-4.34,-6.1l-1.54,-1.44l-0.45,-0.54l-0.94,-1.58l-0.33,-1.14l-0.1,-2.83l0.97,-0.42l0.23,0l0.3,-0.18l0.84,-1.06l1.7,-0.85l0.2,-0.27l0.12,-0.41l-0.06,-0.68l-0.18,-0.34l-0.45,-0.26l-0.29,-0.02l-0.22,-0.06l-0.18,-0.16l-0.23,-0.86l0.05,-2.03l-0.68,-0.49l-0.13,-0.16l-0.06,-0.11l-0.36,-1.01l-0.18,-0.32l-0.36,-1.1l-0.41,-1.83l-0.03,-0.48l0.07,-0.34l0.32,-0.62l0.19,-0.29l0.19,-0.18l0.24,-0.18l0.15,-0.16l0.12,-0.42l0.1,-2.46l-0.17,-1.26l-0.76,-1.55l-0.28,-0.65l0.13,-0.22l0.34,-0.29l0.9,-0.37l0.81,-0.51l0.83,-0.68l0.72,-1.1l0.28,-0.62l0.09,-0.49l0.01,-0.38l0.05,-0.28l0.12,-0.24l0.19,-0.09l0.37,0.07l0.26,0.13l0.67,0.24l0.35,-0.07l0.3,-0.24l0.33,-0.64l0.66,-0.54l0.82,-0.22l1.38,-0.98l0.54,-0.1l0.46,0.14l0.31,0.29l0.68,0.46l0.39,0.39l0.25,0.42l0.09,0.13l0.48,0.43l0.64,0.4l0.31,0.13l0.32,-0.03l1.31,-0.65l0.27,-0.03l0.26,0.18l0.1,0.24l1.05,0.79l0.65,-1.17l0.22,-2.29l0.18,-0.43l0.96,-0.88l1.62,-0.95l0.48,-0.12l0.37,0.07l0.6,0.51l0.35,0.07l0.44,-0.06l1.32,-0.72l1.65,-0.63l0.46,-0.12l0.39,0.05l0.44,0.37l2.03,2.17l1.59,1.31l2.32,0.19l1.93,1.37l0.47,0.09l0.29,-0.07l0.06,-0.28l0.01,-0.22l-0.06,-0.21l-0.09,-0.22l-0.18,-0.33l-0.26,-0.34l-0.43,-0.35l-0.56,-0.06l-0.09,-0.03l-0.01,-0.12l0.04,-0.24l0.15,-0.54l-0.02,-0.2l-0.08,-0.22l-0.28,-0.6l0.15,-0.14l0.39,-0.12l1.93,-0.29l0.67,0.06l0.69,0.38l2.41,1.75l2.61,1.22l0.79,0.48l0.73,0.54l0.96,0.45l0.45,0.1l0.28,-0.13l0.11,-0.24l0.08,-0.44l0.11,-0.3l0.1,-0.23l0.2,-0.22l0.2,-0.15l2.89,-1.19l-0.6,-2.04l0.09,-1.49l0.4,-1.19l0.36,-0.73l0.51,-0.75l0.38,-0.44l0.55,-0.48l0.25,-0.13l0.3,-0.03l0.56,0.01l0.22,-0.05l0.24,-0.14l0.7,-0.56l0.9,-0.48l0.01,0.01l0.38,0.29l2.6,0.86l0.25,1.01l1.38,1.12l3.25,2.09l0.57,0.68l0.77,1.6l2.27,3.16l0.54,0.33l0.23,0.5l3.5,3.69l0.67,0.33l0.97,0.13l1.56,0.46l1.92,1.19l1.6,1.55l0.58,1.58l0.53,0l0.96,-1.07l1.45,0.01l1.59,0.39l1.38,0.1l1.19,-0.53l1.25,-0.79l1.36,-0.64l1.52,-0.12l0.89,0.3l0.71,0.48l1.43,1.3l2.43,1.57z"/>
  <path fill="#d6552c" id="CU-09" d="m469.89335,208.7183l0,0l1.21,0.57l0.2,-1.19l0.66,-0.24l0.84,0.46l0.75,0.97l0.5,1.5l-0.16,1.05l-0.76,0.25l-1.31,-0.95l-0.84,-0.46l-1.06,-0.31l-0.92,-0.45l-0.94,-2.08l-1.29,-0.92l-2.55,-1.28l1.02,-0.8l1.12,0.26l1.05,0.8l0.77,0.79l1.05,1.43l0.66,0.6zm-13.9,-7.3l0,0l0.02,0.71l-0.53,0.36l-0.59,0.06l-0.51,-0.18l-0.38,-0.38l-0.38,-0.26l-0.12,-0.33l0.31,-0.21l0.35,0.18l1.73,0.33l-0.06,-0.26l-0.04,-0.12l-0.03,-0.2l0.23,0.3zm-3.77,0.35l0,0l-1.09,0.06l-0.69,-0.47l0.1,-0.41l0.23,-0.09l0.56,0.13l1,0.34l-0.11,0.44zm10.93,-5.82l0,0l0.14,0.25l0.76,-0.4l0.72,-0.05l1.41,0.45l-0.93,1.09l-3.34,0.8l-1.15,0.77l-1.14,-0.62l-1.26,-0.38l0.87,-0.66l2.5,-0.56l1.03,-0.92l0.38,0.16l0.01,0.07zm29.57,-104.33l0,0l0.68,0.74l0.95,2.03l1.36,1.3l0.39,0.52l0.47,1.41l1.29,2.28l0.57,0.75l0.85,0.3l0.86,0.61l3.29,3.39l0.24,0.64l1.21,2.24l0.5,0.54l0.86,-0.13l0.41,-0.77l0.34,-5.76l0.39,-0.76l0.79,-0.34l1.92,0.31l1.15,0.03l-0.63,0.8l-2.29,0.41l-0.5,0.66l0.1,1.38l0.29,1.03l0.46,0.82l0.62,0.74l0.82,0.78l0.62,0.29l1.76,-0.01l0.77,0.51l0.54,1.19l0.31,1.33l0.11,0.91l0.26,0.94l0.66,0.67l0.95,0.46l2.02,0.65l0.4,0.07l1.06,-0.51l0.6,0.33l0.58,0.53l0.61,0.28l4.35,-0.66l1.25,0.14l1.2,0.56l3.19,2.06l0.04,-1.06l0.56,-0.54l1.85,-0.5l0.11,0.76l0.42,0.39l0.65,0.09l0.82,-0.14l-0.15,-0.29l-0.19,-0.55l-0.15,-0.26l1,0.33l0.96,0.79l1.45,1.55l-1.03,0.14l-0.71,-0.43l-0.45,-0.03l-0.25,1.33l0.17,1.41l1.05,2.4l0.25,1.23l0.38,0.79l0.91,0.3l2.17,0.28l1.7,0.91l0.48,0.13l0.68,-0.16l0.36,-0.36l0.2,-0.36l0.2,-0.16l-0.02,-0.42l-0.43,-0.92l-0.68,-0.93l-1.86,-0.84l-0.77,-1.03l-0.88,-2.27l-0.4,-1.79l-0.33,-0.53l-0.5,-0.29l-1.41,-0.59l-0.29,-0.22l-0.09,-0.81l-0.37,-1.05l-0.74,-0.57l-1.24,0.64l-1.02,-1.1l-0.97,0.9l-1.02,-0.64l-1.92,-2.41l-2.69,-2.32l-0.76,-1.19l-0.49,-0.13l-0.99,0.48l0.61,-1.32l1.14,-1.39l1.31,-0.89l1.11,0.18l2.49,2.11l0.27,0.63l0.46,1.95l0.25,0.4l7.6,5.55l1.45,0.72l3.65,1.14l1.02,0.73l1.01,1.04l2.42,1.99l0.97,0.36l4.21,3.2l1.05,0.54l1,0.32l1.06,0l1.28,-0.34l-0.55,1.46l0.39,0.93l0.72,0.67l0.42,0.67l-0.25,1.53l-1.72,1.86l-0.47,1.34l-0.63,-0.42l-1.23,-1.39l-0.36,-0.29l-4.6,-2.15l-1.16,-0.34l-1.34,-0.14l0.03,0.14l-0.17,0.28l-0.24,0.27l-0.11,0.07l-0.16,0.28l-0.36,-0.11l-0.42,-0.26l-0.64,-0.29l-0.77,-0.71l-0.63,-0.24l-1.64,0.14l-0.58,0.76l0.24,0.84l0.81,0.41l0.83,0.19l0.59,0.46l0.55,0.52l0.67,0.4l0.71,0.16l2,-0.16l1.41,0.59l0.36,1.27l-0.51,1.28l-1.26,0.58l-0.2,0.64l0.45,1.38l0.63,1.33l0.32,0.52l0.81,0.16l1.6,-0.27l1.13,0.13l-0.57,1.36l0.71,-0.19l1.78,-0.9l0.06,-0.09l0.68,-0.4l0.68,-0.09l0.63,-1.16l0.88,-4.09l1.81,-3.44l0.58,-0.76l1.36,-0.24l1.31,0.8l7.68,9.47l1.13,1.04l0.14,0.1l0,0l-0.17,0.15l-0.58,0.57l-1.14,0.46l-2.04,1.6l-0.9,0.42l-1.94,0.49l-1.28,0.06l-1.67,-0.41l-1.41,-0.17l-1.14,3.52l-0.59,0.71l-0.44,1l-0.06,0.72l0.32,1.26l0.35,0.45l0.32,0.22l2.74,-0.01l0.41,0.11l0.15,0.27l-0.11,0.28l-4.04,3.75l-0.37,0.9l-0.05,0.52l0.32,4.96l-2.61,4.34l-0.47,0.56l-0.92,0.81l-0.46,0.15l-2.1,0.45l-0.35,0.15l-0.67,0.43l-0.85,0.4l-1.01,1.42l-2.06,4.97l-0.59,0.3l-0.59,-0.17l-0.42,-0.22l-0.72,-0.69l-0.34,-0.25l-0.33,-0.08l-0.43,0.23l-0.48,0.38l-0.73,1.6l-0.72,-0.75l-0.23,-0.51l0.01,-0.24l0.05,-0.22l0.48,-0.72l0.06,-0.21l-0.03,-0.17l-0.14,-0.2l-0.35,-0.11l-0.61,-0.12l-1.19,-0.09l-1.25,-0.32l-0.17,-0.16l-0.06,-0.19l0.04,-0.46l-0.06,-0.35l-0.15,-0.35l-0.62,-0.96l-0.21,-0.24l-0.31,-0.41l-0.11,-0.19l-0.09,-0.19l-0.03,-0.16l-0.11,0.01l-0.24,0.17l-0.5,0.6l-1.03,0.51l-0.26,0.18l-0.13,0.26l0.01,0.44l0.05,0.33l0.16,0.58l0,0.11l-0.3,0.67l-0.07,0.53l-0.23,0.53l-0.47,0.61l-1.3,0.26l-0.96,0.1l-0.92,-0.07l-0.19,0.01l-0.18,0.25l-0.2,1.12l-1.04,0.15l-1.45,0.43l-0.72,0.4l-0.38,1.03l0.01,0.97l-0.14,0.24l-0.23,0.19l-0.54,-0.07l-0.37,-0.09l-0.82,-0.05l-0.39,-0.07l-0.27,-0.23l-0.36,-0.49l-0.28,-0.48l-0.4,-0.53l-0.39,-0.17l-0.48,0.08l-0.55,0.38l0,0.61l0.12,0.5l0.06,0.48l-0.05,0.44l-0.3,1.24l-0.07,0.6l-0.01,0.54l0.04,0.44l-0.57,0.41l-1.08,0.44l-4.36,0.85l-1.69,-0.12l-3.72,5.27l-0.95,6.25l-0.01,0.01l-0.69,-0.21l-2.62,-0.3l-1.56,0.38l-1.07,0.83l-0.9,0.88l-1.09,0.53l-4.65,0.13l-2.44,-0.63l-0.77,-1.64l-0.53,0l-0.44,1.09l-2.35,-2.79l-0.85,-0.39l-1.56,-0.32l-0.86,-0.83l-1.27,-2.46l-0.75,-0.87l-1.32,-1.21l-1.45,-0.91l-1.14,0.04l-0.77,0.43l-0.26,-0.39l-0.04,-0.72l-0.13,-0.55l-0.86,-1.04l-0.45,-0.73l-0.2,-0.65l-0.52,-1.11l-5.05,-3.69l-0.98,-0.28l-2.51,0.14l-0.89,-0.52l-0.79,-1.16l-1.07,-2.04l-0.88,-0.87l-2.63,-2.03l-0.64,-0.08l-0.49,-0.71l-0.44,-2.62l-0.25,-4.99l-0.56,-2.15l-1.09,-2.16l-0.76,-2.17l0.46,-2.21l0.65,0.77l0.8,0.12l0.67,-0.52l0.28,-1.1l-0.53,-0.79l-2.32,-0.78l-0.53,-0.56l-0.15,-1.34l-0.67,-2.49l-0.15,-1.46l-0.31,-1.3l-1.34,-2.34l-0.31,-1.1l-0.43,-2.58l-1.1,-2.45l-1.46,-2.11l-0.96,-0.98l0.01,0l2.62,-1.16l3.73,-2.35l0.49,-0.44l0.24,-0.31l0.84,-0.77l0.8,-0.49l1.62,-0.75l1.23,-0.38l0.18,0.05l0.16,0.12l0.36,0.46l0.14,0.2l0.14,0.19l0.18,0.09l0.29,0l0.4,-0.44l0.21,-0.33l0.82,-2.26l0.71,-1.89l0.64,-0.33l0.39,0.08l1.66,0.11l0.96,0.18l1.34,-0.05l0.52,-0.09l0.2,-0.2l-0.14,-0.16l-0.32,-0.21l-0.23,-0.36l-0.11,-0.55l0.86,-1.3l0.35,-0.42l0.45,-0.72l0.24,-0.15l0.38,-0.05l0.17,-0.11l0.13,-0.29l0.05,-0.47l-0.02,-0.61l-0.07,-0.47l-0.37,-1.23l-0.23,-1.44l0.23,-0.43l0.44,-0.63l1.07,-1.06l0.74,-0.45l0.6,-0.23l0.31,0.03l0.19,0.08l0.12,0.16l0.07,0.26l0.01,0.46l0.1,0.37l0.21,0.4l0.44,0.44l0.23,0.42l1.09,1.51l0.75,0.35l0.98,0.04l2.78,-0.38l0.41,-0.15l-0.03,-0.26l-0.3,-1.57l0.01,-0.31l0.11,-0.22l0.23,-0.21l1.02,-0.55l0.9,-0.65l-1.44,-2.44l-1.21,-1.27l-3.51,-2.96l-0.26,-0.27l-0.44,-1.35l0.83,-2.24l0.38,-0.22l0.49,-0.25l0.49,-0.02l0.43,-0.07l1.16,-0.37l1.11,-0.03l0.88,-0.18l0.62,-0.32l0.79,-0.57l1.73,-1.82l1.27,-1.09l0.84,-0.47l0.96,-0.35l0.4,-0.28l0.26,-0.36l0.26,-0.82l0.07,-0.45l-0.01,-0.44l-0.15,-0.41l-0.15,-0.29l-0.61,-0.39l0.12,-0.68l0,0l0.14,0.04l1.06,-0.37zm12.66,0.85l0,0l1.17,0.03l0.81,-0.41l0.69,-0.6l0.79,-0.55l1.23,-0.36l1,0.07l0.87,0.35l0.81,0.47l0.27,0.32l0.67,1.04l0.3,0.22l0.62,-0.16l1.03,-0.73l0.53,-0.17l0.78,0.36l2.3,1.51l0.83,0.29l0.92,-0.51l0.59,-0.65l0.7,-0.07l1.25,1.23l0.55,0.94l0.15,0.95l-0.19,1.05l-1.54,3.47l0.22,0.75l0.81,1.27l-1.1,0.04l-0.85,0.33l-1.51,1.16l0.34,-1.38l-0.46,-0.63l-0.77,0.24l-0.58,1.25l0.19,0.23l0.31,0.51l0.05,0.55l-0.55,0.33l-0.41,-0.1l-0.27,-0.37l-0.23,-0.47l-0.88,-1.21l-0.35,-0.73l-0.44,-0.69l-0.88,-0.69l-1.02,0.49l-1.54,-0.33l-1.53,-0.73l-0.99,-0.74l-0.19,-0.67l0.29,-0.82l0.42,-0.86l0.21,-0.81l-0.34,-0.56l-0.78,-0.37l-1.37,-0.39l0.36,0.66l0.14,0.67l-0.11,0.66l-0.39,0.64l-0.49,-1.58l-0.44,0l-0.72,1.1l-1.17,0.32l-1.09,-0.47l-0.49,-1.23l-0.61,-0.92l-1.24,-1.01l-0.9,-1.28l0.36,-1.78l-0.53,-0.52l1.38,0.04l0.99,0.64l0.91,0.81l1.11,0.56zm9.32,-7.9l0,0l-1.71,0.04l-1.82,-1.91l-2.86,-4.47l0.54,-1.03l-0.8,-1.17l-1.27,-1l-0.87,-0.54l1.76,-0.28l1.56,1.28l1.13,1.91l0.91,3.32l1.11,1.29l1.3,1.19l1.02,1.37zm-16.43,-4.51l0,0l0.63,0.27l1.77,-0.26l0.85,0.28l0.49,0.69l0.33,0.79l0.51,0.57l1.06,0.11l-0.93,-0.58l0.29,-0.49l0.31,-0.42l0.37,-0.36l0.41,-0.31l0.54,0.93l0.71,0.47l0.7,-0.11l0.54,-0.81l0.57,1.32l-0.78,0.57l-1.3,0.3l-0.98,0.49l0.83,0.22l0.61,0.46l0.52,0.51l0.53,0.39l0.75,0.26l1.48,0.31l0.74,0.49l-1.61,3.23l-1.07,1.3l-0.78,-0.8l-0.33,0.15l-0.82,0.23l-0.32,0.16l-0.23,-0.6l-0.19,-0.32l-0.56,-0.67l-0.3,-1.55l-1.51,-0.54l-1.2,0.62l0.62,1.96l-0.92,-0.42l-2.52,-1.51l-0.51,-0.43l-0.49,-1.15l-2.28,-1.63l-0.7,-1.2l1.17,-0.43l0.93,-1l0.61,-1.27l0.22,-1.25l0.11,-2.81l-0.25,-0.87l-0.79,-1.33l1.08,0.17l1.11,0.37l0.88,0.69l0.35,1.09l-0.4,0.71l-0.78,0.78l-0.49,0.96l0.42,1.27zm-15.03,-15.51l0,0l0.57,0.97l1.42,-0.8l1.83,0.47l1.8,1.18l1.34,1.3l0.68,0.96l0.63,1.15l0.46,1.21l0.28,2.56l0.33,0.81l1.52,1.72l0.61,0.01l0.99,0.39l0.89,0.13l-1.19,1.18l-1.72,-0.47l-3.48,-2.3l-1.56,-0.31l-1.73,0l-1.81,-0.37l-1.78,-1.43l1.51,-0.96l-0.68,-1.29l-1.45,-0.75l-0.81,0.65l-0.09,0.72l-0.27,0.8l-0.48,0.5l-0.66,-0.2l-0.45,-0.82l-0.03,-0.96l0.32,-0.61l0.64,0.28l0.02,-1.35l-1.14,-1.53l-1.67,-0.74l-1.6,1.02l-0.37,-0.4l-0.32,-0.09l-0.34,0.02l-0.44,-0.1l0.99,-1.25l1.41,-0.39l2.53,0.06l2.3,-0.92l1,-0.05z"/>
  <path fill="#d6552c" id="CU-08" d="m443.66335,196.1983l0,0l-1.23,1.05l-1.73,-0.59l-1.61,-1.34l-0.84,-1.21l1.4,-0.3l1.5,0.63l2.51,1.76zm-12.53,-7.25l0,0l0.02,0.98l3.52,-0.1l1.29,0.74l0.82,2.02l-0.53,0l-1.22,-0.9l-5.01,-0.59l-1.63,-1.65l0.88,-1.32l0.7,-0.63l0.68,0.05l0.34,0.6l0.14,0.8zm-4.05,-1.83l0,0l-0.44,0.42l-0.2,-0.48l-0.25,-0.29l-1.7,-0.45l-3.6,-2.37l-0.76,-0.86l0.92,-0.15l1.3,0.09l1.18,0.33l0.51,0.54l0.83,0.34l1.69,0.2l1.34,0.47l-0.2,1.12l-0.62,1.09zm-14.27,-12.51l0,0l3.18,1.94l2.77,2.73l1.82,2.24l-0.36,-0.04l-1.11,0.04l0.2,0.43l0.29,1.14l-2.03,-1.04l-1.35,-1.24l-2.48,-2.9l0,-0.57l1.25,0.48l0.92,0.87l0.81,0.99l0.93,0.84l-0.94,-1.54l-1.58,-1.98l-1.81,-1.55l-1.58,-0.21l0,0.57l0.24,0.27l0.07,0.15l0.04,0.19l0.19,0.39l-0.82,-0.24l-0.69,-0.41l-0.57,-0.6l-0.41,-0.79l3.02,-0.16zm-10.71,-8.07l0,0l2.81,2.95l-1.1,0.46l-1.2,0.03l-1.14,-0.35l-0.96,-0.71l0.48,0.04l1.47,-0.04l-0.31,-0.83l-0.52,-0.52l-0.59,-0.11l-0.53,0.41l-1.87,-1.38l-0.62,-0.72l2.26,-0.33l1.82,1.1zm28.95,-99.01l0,0l7.05,0.81l3.35,-0.18l0.36,0.78l1.37,4.5l0.26,-0.19l0.67,-0.34l0.72,1l0.66,-0.61l1.11,-2.46l-0.92,-1.3l-0.49,-0.49l-0.59,-0.36l0,-0.53l2.12,0.29l2.29,2.31l7.81,2.78l1.01,0.71l0.61,0.99l1.42,1.22l1.64,1.11l1.26,0.66l1.7,0.52l4.31,0.74l1.31,-0.2l-0.03,0.52l0.07,1.08l-0.04,0.51l0.74,-0.36l0.28,-0.21l0.49,0.77l0.67,1.48l0.51,0.67l0.65,0.49l1.28,0.67l0.56,0.47l0.55,0.31l0.71,0.01l0.75,-0.07l0.67,0.04l2.45,1.01l1.11,0.31l3.55,0.26l0.62,0.33l0.14,0.76l0.06,0.88l0.37,0.66l0.6,0.15l1.83,-0.02l-0.24,0.12l-0.23,0.29l0.75,0.7l0.89,0.35l0.92,0.21l0.76,0.27l-0.12,0.68l0.61,0.39l0.15,0.29l0.15,0.41l0.01,0.44l-0.07,0.45l-0.26,0.82l-0.26,0.36l-0.4,0.28l-0.96,0.35l-0.84,0.47l-1.27,1.09l-1.73,1.82l-0.79,0.57l-0.62,0.32l-0.88,0.18l-1.11,0.03l-1.16,0.37l-0.43,0.07l-0.49,0.02l-0.49,0.25l-0.38,0.22l-0.83,2.24l0.44,1.35l0.26,0.27l3.51,2.96l1.21,1.27l1.44,2.44l-0.9,0.65l-1.02,0.55l-0.23,0.21l-0.11,0.22l-0.01,0.31l0.3,1.57l0.03,0.26l-0.41,0.15l-2.78,0.38l-0.98,-0.04l-0.75,-0.35l-1.09,-1.51l-0.23,-0.42l-0.44,-0.44l-0.21,-0.4l-0.1,-0.37l-0.01,-0.46l-0.07,-0.26l-0.12,-0.16l-0.19,-0.08l-0.31,-0.03l-0.6,0.23l-0.74,0.45l-1.07,1.06l-0.44,0.63l-0.23,0.43l0.23,1.44l0.37,1.23l0.07,0.47l0.02,0.61l-0.05,0.47l-0.13,0.29l-0.17,0.11l-0.38,0.05l-0.24,0.15l-0.45,0.72l-0.35,0.42l-0.86,1.3l0.11,0.55l0.23,0.36l0.32,0.21l0.14,0.16l-0.2,0.2l-0.52,0.09l-1.34,0.05l-0.96,-0.18l-1.66,-0.11l-0.39,-0.08l-0.64,0.33l-0.71,1.89l-0.82,2.26l-0.21,0.33l-0.4,0.44l-0.29,0l-0.18,-0.09l-0.14,-0.19l-0.14,-0.2l-0.36,-0.46l-0.16,-0.12l-0.18,-0.05l-1.23,0.38l-1.62,0.75l-0.8,0.49l-0.84,0.77l-0.24,0.31l-0.49,0.44l-3.73,2.35l-2.62,1.16l-0.01,0l-0.53,-0.54l-1.17,-0.79l-1.12,-0.42l-3.79,-0.59l-0.88,-0.29l-0.34,-0.57l0.46,-1.06l0.81,0.46l0.91,0.16l1.96,-0.05l0.29,-0.35l-0.36,-0.79l-0.9,-1.23l-0.5,-0.46l-0.73,-0.53l-1.48,-0.85l-1.05,-0.31l-0.52,0.07l-0.46,0.31l-0.9,0.41l-3.31,0.77l-3.33,0.33l-0.36,0.14l-0.4,0.35l-0.32,0.42l-0.14,0.38l-0.24,0.29l-0.55,0.06l-2.19,-0.13l-0.86,-0.18l-0.77,-0.06l-0.35,-1.6l-0.21,-2.35l0.21,-2.02l-0.42,-1.01l-1.56,-1.12l-1.77,-0.78l-1.04,1.57l0,1.23l-0.84,1.01l-2.08,0.89l-1.98,0l-0.62,-0.89l0.41,-1.35l0.32,-2.13l-0.53,-1.23l-1.14,-1.79l0.52,-1.24l1.56,-3.36l0.73,-3.03l0.73,-1.68l1.04,-2.02l0.83,-1.69l0.42,-1.57l0.83,-0.56l1.15,0.11l1.04,0.23l0.42,-0.9l1.25,-1.91l1.04,-1.91l0,-1.8l-0.31,-1.35l-0.94,-0.45l-1.56,-0.78l-2.19,-1.8l-1.15,-1.01l-0.1,-1.58l1.04,-2.47l-0.1,-2.14l0.93,-0.9l0.63,-1.8l0.94,-1.68l1.04,-1.8l0.73,-1.47l0.62,-2.47l0.73,-1.58l0.42,-0.9l0.62,-0.56l0.52,-0.56l0.21,-2.37l0.3,-1.09zm14.19,-11.06l0,0l-0.53,0.86l-0.18,0.48l-1.3,0.45l-0.65,-0.02l-0.13,-0.5l-0.02,-1.27l0.42,-0.15l1,0.29l0.67,-0.09l0.09,-0.58l0.16,-0.22l0.51,0.26l-0.04,0.49zm26.95,-0.11l0,0l0.82,1.13l-0.26,-0.11l-0.67,-0.37l0.32,1.05l4.79,4.93l0.26,0.68l-0.21,0.76l-0.52,-0.01l-0.64,-0.32l-0.58,-0.17l-8.88,2.06l0,-0.47l0.15,-0.24l0.18,-0.19l0.14,-0.32l0.06,-0.6l0.21,-0.29l0.47,0.04l0.5,0.11l0.29,-0.1l0.06,-0.73l-0.25,-0.74l-0.59,-0.35l-0.95,0.48l-1.4,0.62l-1.93,0.26l-3.24,-0.07l-1.63,-0.49l-1.96,-1.38l-2.96,-0.56l-2.06,-0.66l-1.26,-0.86l1.03,-0.85l-1.1,-1.23l-1.46,1.11l-1.16,0.63l-0.19,-2.63l0.27,0.21l0.67,0.32l0.24,-1.53l0.65,-0.17l0.76,0.36l0.56,0.02l0.78,-0.13l3.18,0.66l1.74,1.11l2.01,0.17l2.03,-0.17l1.81,0.16l1.74,-0.11l1.14,-0.92l0.98,-1.06l1.27,-0.5l1.62,0.16l1.72,0.49l1.45,0.81z"/>
  <path fill="#d6552c" id="CU-07" d="m401.39335,66.4183l0,0l2.1,0.99l1.9,-0.31l0.73,0.73l1.34,0.97l1.3,0.46l0.59,-0.84l0.77,-0.09l3.74,0.81l1.35,0.02l0.77,-0.55l0.16,-0.49l0.18,-0.35l0.89,-0.1l0.72,0.18l1.11,0.69l0.83,0.15l1.54,-0.23l2.68,-1.02l1.37,-0.34l1.63,-0.02l3.96,0.45l-0.3,1.09l-0.21,2.37l-0.52,0.56l-0.62,0.56l-0.42,0.9l-0.73,1.58l-0.62,2.47l-0.73,1.47l-1.04,1.8l-0.94,1.68l-0.63,1.8l-0.93,0.9l0.1,2.14l-1.04,2.47l0.1,1.58l1.15,1.01l2.19,1.8l1.56,0.78l0.94,0.45l0.31,1.35l0,1.8l-1.04,1.91l-1.25,1.91l-0.42,0.9l-1.04,-0.23l-1.15,-0.11l-0.83,0.56l-0.42,1.57l-0.83,1.69l-1.04,2.02l-0.73,1.68l-0.73,3.03l-1.56,3.36l-0.52,1.24l1.14,1.79l0.53,1.23l-0.32,2.13l-0.41,1.35l0.62,0.89l1.98,0l2.08,-0.89l0.84,-1.01l0,-1.23l1.04,-1.57l1.77,0.78l1.56,1.12l0.42,1.01l-0.21,2.02l0.21,2.35l0.35,1.6l-0.76,0.31l-0.49,-0.58l-1.23,0.69l-1.3,0.31l-3.09,0.06l-1.4,0.24l-3.77,1.86l-2.94,0.79l-2.83,0.25l-2.9,-0.27l-5.73,-1.67l-1.19,-0.73l-1.32,-1.24l-1.01,-0.15l-3.71,0.45l-1.41,-0.01l-1.57,-0.5l-0.68,-0.41l-0.68,-0.67l-1.09,-1.83l-0.63,-0.68l-0.28,0.65l-0.21,0.78l-0.54,0.51l-0.71,0.11l-0.72,-0.38l-0.68,-0.62l-0.41,-0.22l-3.06,-0.86l-0.43,-0.17l-0.57,-0.49l-0.42,-0.72l-0.34,-0.87l-0.5,-0.73l-0.91,-0.3l-5.06,-0.14l-4.82,-1.4l-1.83,0.03l-0.81,1.24l-0.49,1.35l-1.21,-0.19l-1.58,-0.83l-1.61,-0.59l0,-0.53l1.47,-0.57l0,-0.48l-1.11,-0.26l-0.23,-0.86l0.07,-1.09l-0.2,-0.94l-1.21,0.89l-1.26,0.39l-1.39,0.02l-1.59,-0.26l-1.46,-0.53l-0.83,-0.19l-0.65,0.15l-0.19,0.55l0.45,0.52l0.71,0.38l0.59,0.13l-0.88,0.96l-1.33,-0.64l-1.22,-1.38l-0.53,-1.26l-0.16,-1.65l-0.49,-1.45l-0.85,-1.03l-1.22,-0.39l-1.2,-0.2l0,-0.01l0.16,-3.2l0.08,-0.39l0.26,-0.38l0.49,-0.54l1.94,-1.57l2.58,-2.68l2.54,-1.19l1.33,-1.09l0.49,-0.14l1.06,0.09l0.36,-0.23l0.2,-0.4l0.15,-0.65l0.27,-0.61l0.71,-0.91l0.73,-0.31l0.68,-0.09l4.15,1l0.52,0.22l0.35,0.27l1.02,0.54l2.13,0.16l1.77,-1.52l1.41,-2.32l1.18,-2.38l0.38,-1.42l0.06,-1.01l-0.27,-0.42l-0.32,-0.16l-0.42,-0.02l-0.36,0.04l-0.31,-0.07l-0.22,-0.23l-0.26,-0.5l-0.32,-0.87l-1.04,-2.05l-0.46,-1.33l-0.03,-0.8l0.15,-0.53l0.78,-0.7l2.37,0.06l0.83,0.69l0.26,0.5l0.36,0.53l0.75,0.66l0.74,0.19l0.62,-0.04l0.52,-0.28l1.02,-0.7l0.95,-0.1l0.66,0.05l2.93,0.89l1.46,-0.47l0.97,0.44l0.62,0.42l1.01,0.42l1.01,-0.13l0.8,-0.34l0.64,-0.59l0.61,-0.82l0.53,-1.08l0.37,-0.97l0.39,-1.39l1.28,-1.32l0.85,-0.45l1.26,-0.47l0.88,-0.06l0.7,0.16l1.78,0.94l1.84,0.3l0.22,-1.39l-0.08,-1.23l0.18,-0.93l0.28,-0.96l-0.05,-0.57l-2.03,-2.81l-2.4,-4.82l-0.6,-0.97l-0.83,-0.65l1.32,-2.48l-0.03,-1.78l0.04,-0.08l5.36,4.6zm9.69,-16.36l0,0l-0.49,0l0,-0.52l-0.23,-0.43l-0.58,-0.24l0.63,-0.26l2.78,-0.12l-0.92,0.78l-1.19,0.79zm17.54,-1.92l0,0l-1.65,0.89l-0.4,-1.07l-1.05,-0.41l-4.29,-0.28l-0.73,-0.3l-0.9,-0.59l1.21,-0.17l6.71,0.43l1.12,0.65l-0.02,0.85z"/>
  <path fill="#d6552c" id="CU-01" d="m99.08335,100.9383l0,0l1.09,0.38l0.18,-0.01l0.36,0.02l-0.38,0.14l-1.4,0.04l-1.61,-0.1l-1.08,-0.49l0.71,-0.4l2.13,0.42zm38.41,-80.86l0,0l0.75,0.24l0.37,-0.21l0.43,-0.44l0.53,-0.25l0.67,0.37l0.45,0.8l-0.46,0.25l-0.72,0.11l-0.29,0.43l0.29,0.81l0.44,0.26l0.56,-0.27l0.66,-0.8l-0.15,1.54l1.25,0.1l1.42,-0.95l-0.07,0.43l0.33,2.8l0,0.36l-0.26,1.54l1.81,3.51l0.32,1.89l-0.09,0.69l-1.33,1.58l-0.37,0.32l-0.57,0.21l-1.74,0.2l-0.33,0.14l-0.1,0.15l0.11,0.14l0.16,0.12l0.79,0.36l0.29,0.27l0.36,0.49l1.18,2.04l0.87,1.17l0.25,0.19l0.66,0.37l0.4,0.31l0.46,0.63l0.54,0.96l1.41,3.3l0.32,0.61l2.37,2.68l0.56,0.84l0.21,0.45l0.03,0.31l0,0l-1.76,0.59l-4.3,3.67l-0.85,0.56l-1.63,0.14l-1.1,0.35l-4.77,2.5l-2.34,1.57l-1.95,2.06l-4.09,7.86l-1.69,1.68l-2.32,0.27l-2.36,-0.68l-0.97,-0.08l-1.02,0.28l-0.04,0.19l0.04,1.09l-0.12,0.29l-0.28,-0.02l-0.33,-0.1l-0.51,0.19l-0.33,-0.1l-0.27,-0.03l-0.12,0.31l0.04,1.09l-0.04,0.21l-2.58,1.68l-0.88,0.96l-0.38,0.65l-0.06,0.37l0.04,0.27l-0.09,0.34l-0.47,1.12l-0.35,0.49l-0.64,0.5l-0.23,-0.23l-0.11,-0.25l-0.04,0.91l-0.51,0.53l-0.4,-0.79l-0.59,-0.25l-0.63,0.09l-0.06,1.27l-1.18,1.29l-3.56,0.31l-3.69,-0.47l-3.17,-1.3l0.6,-0.65l-0.19,-0.79l-0.53,-0.87l-0.41,-0.91l-0.49,0l-1.01,2.07l-1.77,1.86l-2.1,1.35l-1.95,0.52l0.14,-0.27l0.16,-0.53l0.14,-0.3l-7.92,1.17l-0.38,-0.07l-0.28,-0.3l-0.2,-0.53l-0.09,-0.52l0.08,-0.23l-0.82,0.25l-0.85,1.09l-1.04,0.24l-5.56,-0.32l-1.58,0.32l-2.94,2.91l-0.09,0.58l-0.54,2.13l-0.34,0.76l0.37,0.5l0.11,0.46l0.05,1.15l-0.81,-0.69l-0.79,0.18l-0.49,0.83l0.09,1.26l0.54,1.02l0.7,0.37l0.83,-0.2l0.91,-0.71l-0.41,1.67l-2.47,1.84l-0.59,1.56l0.26,0.37l0.48,0.44l0.29,0.57l-0.32,0.73l-0.67,0.66l-0.77,0.6l-0.84,0.44l-0.87,0.17l-1.35,-0.33l-2.7,-1.45l-1.59,-0.33l-1.56,0.36l-2.76,1.7l-1.32,0.57l-0.72,0.06l-1.49,-0.11l-0.72,0.05l-0.79,0.33l-1.62,1.03l-2.24,0.67l-8.44,7.11l-3.07,1.68l-3.02,0.28l-0.93,-1.52l2.86,-6.06l0.56,-3.04l-1.62,-2.25l-2.85,-0.49l-3.19,0.48l-5.68,1.69l-2.77,1.33l-7.22,4.83l-2.88,0.71l-3.11,-0.05l-3,-0.94l-0.98,-0.8l-0.59,-1.09l-0.17,-1.27l0.26,-1.29l0.24,-0.5l0.37,-0.63l0.45,-0.51l0.48,-0.19l0.34,0.19l0.23,0.4l0.19,0.45l0.22,0.37l0.52,0.41l0.58,0.24l0.63,0.07l0.65,-0.06l1.22,-0.51l0.84,-0.88l0.04,-0.98l-1.18,-0.83l1.22,-0.67l1.09,0l0.68,0.75l-0.01,1.54l5.86,-3.16l5.2,-1.54l6.09,-2.75l3.89,-2.84l0.54,-0.29l0.95,-0.08l0.87,0.13l0.45,0.35l-0.32,0.61l2.25,1l1.67,-0.47l1.62,-1l2.1,-0.54l1.04,0.32l1.21,0.76l1.01,0.95l0.42,0.87l0.35,0.45l1.94,-1.41l1.09,0.17l1.02,-4.27l-0.86,0.98l-0.75,1.34l-0.81,0.72l-1,-0.88l-0.42,-1.47l0.09,-1.14l-0.25,-0.89l-1.41,-0.71l0.66,-1.65l0.35,-0.51l-1.33,-0.15l-1.44,-0.53l-1.31,-0.71l-0.89,-0.72l-0.58,-1.09l-0.47,-1.29l-0.66,-1.01l-1.18,-0.25l0.72,-0.67l0.8,-1.2l0.65,-1.41l0.28,-1.28l0.13,-1.8l0.31,-1.66l1.02,-3.4l0.18,-0.19l1.04,-1.97l0.37,-0.2l0.77,-0.08l0.35,-0.23l0.29,-0.49l0.28,-0.98l0.19,-0.37l1.52,-2.25l1.06,-1.2l1.28,-0.79l0,-0.57l-1.47,0l1.24,-1.01l3.06,-0.57l1.34,-0.78l0.85,-1.17l0.9,-1.73l0.33,-1.68l-0.84,-0.99l0,-0.58l0.76,0.23l0.71,0.35l1.02,-0.78l0.97,-0.15l0.83,0.43l0.6,0.98l0.63,-2.9l0.39,-0.75l0.7,-0.29l1.85,-0.17l0.38,-0.36l0.05,-0.78l0.23,-1.32l0.51,-0.93l0.92,0.38l0.95,0.62l0.76,-0.4l0.68,-0.85l0.78,-0.72l-0.54,-0.88l-0.74,-0.55l-0.95,-0.21l-1.18,0.11l0.32,-0.61l0.52,-0.54l0.65,-0.39l0.68,-0.15l1.15,0.42l0.62,0.95l0.47,0.94l0.69,0.43l0.96,-0.17l0.86,-0.42l4.35,-3.17l0.98,1.02l0.68,-1.65l1.09,-0.72l3.12,-0.23l1.18,-0.23l4.93,-2.52l2.48,-0.89l1.17,-0.12l0.8,0.14l0.9,0.43l0.78,0.01l0.5,-0.16l0.99,-0.65l0.52,-0.25l0,-0.58l-0.52,0.25l-0.51,0.33l-0.09,-0.28l0.02,-0.18l-0.06,-0.08l-0.36,-0.04l1.53,-0.97l1.57,-0.47l3.57,-0.14l0.3,-0.47l0.89,-2.45l0.46,-0.25l2.96,-0.02l-0.18,0.54l-0.11,0.22l-0.2,0.3l1.4,0.26l0.84,-0.8l0.57,-1.19l0.62,-0.92l1.06,-0.44l0.82,0.33l0.87,0.65l1.2,0.52l-0.51,0.8l0.78,-0.24l1.14,-0.72l0.58,-0.61l0.43,-1.27l1.07,-1.69l1.34,-1.47l1.29,-0.63l0.97,-0.32l3.69,-2.38l1.45,-0.61l1.33,-0.07l1.16,0.41l0.95,0.85l0,0.48l-0.66,0.5l-0.28,0.93l0.14,1.09l0.55,0.98l0.87,0.4l0.74,-0.48l0.62,-0.78l0.5,-0.52l-1.3,-1.08l0.08,-1.01l1.05,-0.89l1.59,-0.68l2.98,-0.58l0.56,-0.29l0.93,-0.64l0.42,-0.13l0.74,0.13l0.99,0.69z"/>
  <path fill="#d6552c" id="CU-99" d="m204.92335,131.5983l0,0l-1.54,0.06l-0.31,-0.22l0.87,-0.32l1.43,-1.2l0.78,-0.23l0.67,-0.41l0.53,-0.6l0.44,-0.35l2.04,-0.8l0.85,-0.03l0.81,-0.39l0.64,-0.64l0.25,-0.54l0.09,-0.34l0.12,-0.11l0.54,0.61l0.06,1.35l-1.22,1.03l-2.83,1.06l-2.08,1.05l-0.48,0.13l-0.37,0.25l-0.28,0.33l-1.01,0.31zm15.62,-5.48l0,0l-2.24,1.83l-1.25,0.01l-0.97,-1l-0.23,-1.03l0.2,0.13l0.76,0.84l1.19,-0.13l0.96,-0.78l0.29,-0.46l-0.28,-0.02l0.21,-0.15l2.14,-0.94l0.47,-0.16l0.97,-0.2l0.09,0.39l-1.06,0.86l-1.25,0.81zm32.37,-2.19l0,0l-5.66,3.8l-2.22,0.97l-2.36,0.22l-0.01,-1.49l0.68,-0.4l1.99,0.32l0.79,-0.57l0.67,-1.14l0.69,-0.88l0.81,0.25l0.93,0.44l1.05,-0.28l0.84,-0.63l0.35,-0.61l0.44,-1.32l1.03,-0.94l2.24,-1.44l0.59,-0.23l0.43,0.32l0.17,0.48l-0.21,0.24l-0.31,0.18l-2.93,2.71zm-103.11,-20.48l0,0l5.83,1.45l4.01,1.14l1.27,0.56l0.97,0.85l0.39,1.21l-0.25,1.42l-0.38,0.95l0.07,0.87l1.05,1.25l3.21,2.64l0.96,-0.06l0.71,0.37l0.48,0.85l0.36,0.96l0.38,0.72l0.01,0.59l-0.38,0.9l-0.81,1.45l-0.53,0l0.38,0.65l0.12,0.66l-0.14,0.66l-0.36,0.65l1.62,1.03l0.85,0.41l0.99,0.14l0,0.57l-0.51,0.91l0.58,0.98l1.03,0.82l0.85,0.45l-0.72,1.17l-1.47,1.58l-1.66,1.38l-1.29,0.59l-1.34,0.26l-9.14,4.62l-5.46,1.99l-5.06,0.56l-0.85,-0.32l-0.65,-0.72l-4.68,-0.09l-0.69,-0.22l-1.4,-0.62l-0.84,-0.21l-2.57,0.05l-0.64,-0.31l-2.34,-3.12l-0.89,-0.82l-2.01,-1.34l-0.74,-0.87l-0.66,-1.47l-0.49,-2.09l-0.81,-1.91l-0.17,-0.77l0.49,0l0.79,0.79l3.6,2.65l0.47,1.07l1.13,0.92l1.38,0.64l1.2,0.23l2.95,0l0.24,-0.31l2,-1.74l1.13,-0.75l0.55,-0.49l0.23,-0.62l0.23,0.07l0.36,0.46l0.08,0.78l-0.67,1.07l0.49,0.49l1.29,-2.39l-0.36,-0.89l-2.13,-0.35l-0.84,-0.82l-6.14,-10.84l-0.87,-3.06l0.75,-3.3l3.03,-2.4l0.39,-1l0.62,-0.8l1.44,-1.03l1.63,-0.83l1.19,-0.26l-0.79,-0.37l-0.78,-0.15l-0.83,0l-0.86,-0.44l-0.04,-0.15l0.46,-0.18l0.67,-0.51l9.33,1.14zm18.32,0.91l0,0l-1.95,0.09l-1.98,-0.87l-0.73,-1.32l1.64,-0.42l2.67,1.22l1.19,0.93l-0.84,0.37z"/>
  <path fill="#d6552c" id="CU-06" d="m324.47335,54.5483l0,0l1.77,-0.35l0.6,0.12l0.34,0.42l-0.04,1.12l-0.14,0.73l-0.35,1.03l-0.06,0.34l0.05,0.21l0.11,0.18l0.32,0.1l0.39,-0.01l0.81,-0.28l0.46,-0.23l0.8,-0.53l0.33,-0.13l0.39,-0.03l0.55,0.02l0.39,-0.02l0.23,-0.13l0.14,-0.21l0.54,-1.72l0.26,-0.51l0.24,-0.29l0.25,-0.1l0.42,-0.01l1,0.09l0.46,0l0.43,-0.08l0.21,-0.14l0.33,-0.38l0.19,-0.15l0.15,0.23l0.1,0.51l0,1.37l-0.11,0.65l-0.17,0.38l-0.21,0.11l-0.28,0.08l-0.23,0.11l-0.22,0.19l-0.02,0.4l0.08,0.68l0.8,1.87l0.25,0.4l1.36,0.77l0.22,0.79l-0.28,0.67l-0.12,0.56l0.04,0.44l0.29,0.56l0.51,0.27l0.27,0.3l0.2,0.33l-0.23,1.02l-1.36,1.49l0.03,0.83l0.25,0.5l0.44,0.61l2.6,2.55l0.88,0.46l0.51,0.1l0.51,-0.04l1.07,-0.33l0.37,-0.04l0.3,0.07l0.17,0.14l0.12,0.28l0.23,1.73l0.19,0.7l0.4,0.88l0.62,1.15l0.88,1.16l1.8,0.83l-0.78,2.49l-0.26,0.45l-0.28,0.64l-0.08,0.7l0.27,2.99l-0.05,1.52l0.05,0.65l0.75,3.06l0.37,1.05l0.48,0.95l1.34,1.12l0.38,0.53l0.18,0.63l0.12,2.05l-0.05,1.16l0.11,0.73l0.24,0.67l1.45,1.11l0.11,0.16l-0.06,1.05l-2.58,2.68l-1.94,1.57l-0.49,0.54l-0.26,0.38l-0.08,0.39l-0.16,3.2l0,0.01l-0.27,-0.05l-2.94,-1.12l-3.02,-0.66l-2.11,-1.77l-3.74,-1.2l-2.2,-1.9l-7.81,-8.41l-0.14,-0.34l0,-0.4l-0.05,-0.43l-0.3,-0.41l-0.31,-0.06l-0.87,0.14l-0.29,-0.08l-0.77,-0.7l-0.22,-0.49l0.01,-0.92l1.02,0.2l1.24,-0.06l1.23,-0.38l0.96,-0.82l-1.1,0.29l-0.41,0.19l0.29,-0.67l0.4,-0.65l0.29,-0.64l-0.01,-0.63l-0.57,-0.23l-0.86,0.23l-0.65,-0.04l0.09,-1.01l-1.41,0l-0.91,-0.56l-0.08,-0.95l1.02,-1.17l-1.71,-1.06l-0.67,-0.66l-0.55,-0.92l-0.49,0.79l-0.88,0.28l-1.06,-0.13l-1.03,-0.46l-0.39,1.65l0.67,1.05l2.16,1.57l1.05,1.44l0.94,1.76l0.44,1.88l-0.44,1.82l-3.07,-1.17l-5.69,0.16l-0.01,0l-0.53,-0.85l-0.15,-0.48l-0.13,-0.87l-0.03,-1.35l-0.07,-0.4l-0.15,-0.35l-0.2,-0.31l-0.51,-0.56l-0.47,-0.18l-0.77,-0.06l-1.5,0.19l-1.02,0.27l-0.66,0.04l-0.34,-0.14l-0.46,-0.46l-0.37,-0.16l-0.66,0.01l-0.53,0.09l-1.14,0.04l-0.28,0.1l-0.2,0.17l-0.19,0.23l-0.21,0.19l-0.26,0l-0.52,-0.2l-0.99,-0.61l-2.49,-1.03l-2.25,-1.29l-0.77,-1.19l-0.88,-0.85l-3.02,-2.13l0.3,-1.44l-0.07,-0.64l-0.1,-0.29l-0.04,-0.35l-0.07,-0.18l-0.15,-0.08l-0.29,-0.01l-1.15,0.14l-0.3,-0.09l-0.2,-0.15l-0.13,-0.26l-0.11,-0.4l-0.08,-0.7l0.07,-0.58l0.15,-0.67l0.38,-1.08l0.09,-0.61l0,-0.4l-0.22,-0.51l-0.09,-0.31l0.09,-0.41l0.22,-0.45l0.56,-0.84l0.09,-0.4l-0.09,-0.32l-0.25,-0.15l-0.22,-0.08l-0.2,-0.01l-0.23,0.08l-0.33,0.16l-0.35,0.12l-0.28,0.02l-0.18,-0.04l-0.07,-0.16l0.16,-0.4l1.11,-1.82l0.25,-0.53l0.45,-1.27l0.04,-0.32l-0.11,-0.18l-0.28,-0.13l-0.37,-0.07l-0.21,-0.11l-0.02,-0.14l0.54,-0.65l0.86,-0.62l0.38,-0.35l0.22,-0.25l0.84,-0.81l0.44,-0.28l1.51,-0.71l0.86,-0.54l0.28,-0.23l0.62,-0.43l0.56,-0.1l0.79,0.03l3.61,0.96l0.53,0.03l1.68,-0.14l6.6,0.71l0.69,0.24l0.35,0.04l0.46,-0.02l1.58,-0.75l0.49,-0.17l0.44,-0.1l0.6,-0.07l0.29,-0.06l0.32,-0.33l0.46,-0.64l1.57,-2.97l0.25,-0.31l1.44,-0.99l2.97,-1.74l0.87,-1.01l0.2,-0.3l0.27,-0.25l0.34,-0.19l0.6,0.05l0.37,0.13l1.71,1.42z"/>
 </g>
</svg>